<?xml version="1.0" encoding="utf-8"?>
<!-- Generator: Adobe Illustrator 24.0.0, SVG Export Plug-In . SVG Version: 6.00 Build 0)  -->
<svg version="1.1" id="Layer_1" xmlns="http://www.w3.org/2000/svg" xmlns:xlink="http://www.w3.org/1999/xlink" x="0px" y="0px"
	 viewBox="0 0 376 145.7" style="enable-background:new 0 0 376 145.7;" xml:space="preserve">
<style type="text/css">
	.st0{fill:#76C4C0;stroke:#76C4C0;stroke-miterlimit:10;}
	.st1{fill:#3BB5B0;stroke:#3BB5B0;stroke-miterlimit:10;}
	.st2{fill:#139896;stroke:#139896;stroke-miterlimit:10;}
	.st3{fill:#026A78;stroke:#026A78;stroke-width:1.0182;stroke-miterlimit:10;}
	.st4{fill:#DF5F16;stroke:#DE5F17;stroke-miterlimit:10;}
	.st5{fill:#76C4C0;}
	.st6{fill:#EF721B;stroke:#EF721B;stroke-miterlimit:10;}
	.st7{fill:#DF5F16;}
</style>
<g id="Group_19" transform="translate(-1481.152 -114.777) rotate(-90)">
	<path id="Path_113" class="st0" d="M-115.4,1624.1v109.8l-20.9-1.9c-0.4-1.3-0.9-2.6-1.7-3.7c-0.4-5.4-0.9-10.9-1.3-16.3
		c-0.1-1.4-0.5-2.8-1.4-3.9c-4.8-6.5-9.5-13-14.3-19.5c-1.8-2.5-3.8-2.1-5.3,1c-0.6,1.1-1.2,2.2-1.8,3.3c-5.2-1.1-10.3-2.1-15.5-3.2
		c-0.8-0.2-1.3,0.7-1.8,1.6c-1.9,3.3-3.9,6.5-5.7,9.9c-0.9,1.6-1.4,1.7-2.2-0.3c-2.9-7.1-5.9-14.1-8.7-21.2c-0.8-2-1.4-2.5-2.7-1.2
		c-3.3,3.3-6.6,6.5-9.9,9.5c-1.6,1.6-2.9,3.7-3.5,5.9c-1.5,4.2-2.5,9.2-5.4,11.6c-0.7-0.1-1.3-0.3-1.9-0.6c-5-2.3-9.8-5.4-14.7-8.2
		c-0.5-1.5-1.1-2.6-2.2-3c-2.9-1.1-5.8-2.3-8.7-3.5c-0.6-0.3-1.4-0.2-1.9,0.3c-3.9,3.8-7.8,7.6-11.8,11.3c-0.7,0.7-1,1.6-0.9,2.6
		c0,17.7,0.1,35.4,0.1,53.1l0,57c0,13.2,0,26.3-0.1,39.5c0,1.6,0.3,2.1,1.2,2.1c2.4-0.1,4.9,0,7.3,0c12.7,0,25.4-0.1,38.2-0.1h26
		l17.7,0c0.8,0,1.5,0.1,2.3,0.1c17.2,0,34.3,0,51.5,0c-0.3,1.2-0.9,0.5-1.3,0.5c-14.2,0-28.5,0.1-42.7,0c-33,0-66,0-99,0
		c-1.1,0-1.6-0.2-1.6-2.5c0-123.3,0-246.6,0-369.8c0-1.9,0.1-2.5,1.4-2.5c47.3,0.1,94.6,0.1,141.9,0.1c0.4,0,1-0.6,1.3,0.5
		c-0.7,0-1.4,0.1-2.1,0.1c-46.6,0-93.1,0-139.7,0c-0.4,0-0.9,0-1.3,0c-0.9-0.2-1.1,0.5-1.1,1.9c0,12.2,0.1,24.4,0.1,36.6l0,48.7
		c0,9.2,0,18.5,0,27.7c0,3.2-0.6,7,2.3,7.6c0,0,0.1,0.1,0.1,0.2c2.7,3.5,5.5,7,8.2,10.6c2,2.7,4.3,4.1,6.8,2.9c4-2,8-4.4,12-6.4
		c1.5-0.8,2.4-2.2,2.9-4.8c0.8-4.4,2.2-7.7,4.9-9.3c1.2-0.7,2-0.6,3,0.7c2.7,3.7,5.6,7.2,8.3,10.8c1.1,1.5,2.2,1.9,3.6,1.2
		c2.4-1.2,4.8-2.2,7.2-3.2c1.2-0.5,2.6-0.2,3.4,0.8c2.8,2.7,5.6,5.2,8.4,7.9c0.7,0.7,1.5,0.8,2.2,0.2c0.9-0.9,1.7-0.5,2.6,0.3
		c1.2,1.1,2.3,2.3,3.3,3.6c3.3,4.5,6.7,8.8,10.1,13.2c0.7,0.9,1.3,1.3,2.1,0.1c3.9-5.7,7.8-11.2,11.7-16.8c0.9-1.2,1.2-0.9,1.7,0.6
		c1.6,5.3,3.3,10.5,4.9,15.8c1.8,5.8,3.6,11.5,5.4,17.2c0.3,1,0.5,2.4,1.4,2.5c1,0.2,3.6-3.1,3.8-4.9c0.9-5.6,1.8-11.1,2.5-16.8
		c0.4-2.8,1.2-4.2,2.8-4.3c1.6-0.2,3.1-0.5,4.7-0.7C-124.6,1625.5-120,1624.8-115.4,1624.1z"/>
	<path id="Path_114" class="st1" d="M-115.4,1624.1c-4.6,0.7-9.2,1.4-13.8,2.1c-1.6,0.2-3.1,0.6-4.7,0.7c-1.6,0.2-2.4,1.5-2.8,4.3
		c-0.7,5.6-1.6,11.2-2.5,16.8c-0.3,1.8-2.8,5.1-3.8,4.9c-0.8-0.2-1.1-1.5-1.4-2.5c-1.8-5.7-3.6-11.5-5.4-17.2
		c-1.6-5.3-3.3-10.5-4.9-15.8c-0.5-1.5-0.8-1.9-1.7-0.6c-3.9,5.7-7.9,11.2-11.7,16.8c-0.8,1.2-1.4,0.9-2.1-0.1
		c-3.4-4.4-6.8-8.8-10.1-13.2c-1-1.3-2.1-2.5-3.3-3.6c-0.9-0.8-1.6-1.2-2.6-0.3c-0.7,0.7-1.4,0.5-2.2-0.2c-2.8-2.7-5.7-5.1-8.4-7.9
		c-0.8-1-2.2-1.4-3.4-0.8c-2.4,1.1-4.9,2-7.2,3.2c-1.4,0.7-2.5,0.3-3.6-1.2c-2.7-3.7-5.6-7.2-8.3-10.8c-1-1.3-1.8-1.4-3-0.7
		c-2.7,1.6-4.1,4.9-4.9,9.3c-0.5,2.6-1.3,4-2.9,4.8c-4,2-8,4.4-12,6.4c-2.5,1.3-4.8-0.2-6.8-2.9c-2.7-3.6-5.5-7.1-8.2-10.6
		c0-0.1-0.1-0.2-0.1-0.2c-2.9-0.6-2.3-4.4-2.3-7.6c0-9.2,0-18.5,0-27.7c5.1-2.6,10.4-3,15.6-2.8c0.2,0,0.3,0,0.5-0.1
		c1.3-0.8,2,0.3,2.5,2.3c0.7,2.8,1.6,5.5,2.4,8.3c0.7,2.4,1.2,2.6,2.5,0.9c2.7-3.5,5.2-7.3,7.9-10.7c3.6-4.2,6.1-9.3,7.1-14.8
		c0.5-2.7,1.3-1.6,2.2-0.4c4.4,6.2,8.8,12.4,13.2,18.7c0.7,1,1.3,1.1,2.1,0.5c3.6-2.6,7.3-5,10.8-7.7c1.3-1,2.2-0.9,3.2,1
		c2.5,4.7,5.1,9.1,7.7,13.7c0.6,1.1,1.1,1.4,2,0.8c4.7-3.5,9.4-6.9,14-10.5c0.9-0.9,2.3-0.9,3.2-0.1c5.3,3.6,10.5,7.7,16.3,8.7
		c1.4,0.2,2.5,1.4,3.5,3.1c1.4,2.5,3,4.8,4.5,7.3c0.5,0.9,1,1.2,1.7,0.4c3.2-3.8,6.5-7.4,9.8-11.2c2.6,1.6,5.2,3.4,7.8,4.9
		c1.2,0.7,2.3,2,3.7,1.9L-115.4,1624.1z"/>
	<path id="Path_115" class="st2" d="M-126.9,1577c-3.3,3.7-6.5,7.4-9.8,11.2c-0.7,0.8-1.2,0.5-1.7-0.4c-1.5-2.5-3.1-4.8-4.5-7.3
		c-1-1.8-2.1-2.9-3.5-3.1c-5.8-0.9-11-5-16.3-8.7c-0.9-0.8-2.3-0.8-3.2,0.1c-4.7,3.6-9.4,6.9-14,10.5c-0.9,0.7-1.4,0.3-2-0.8
		c-2.5-4.6-5.2-9.1-7.7-13.7c-1-1.8-1.9-1.9-3.2-1c-3.6,2.7-7.2,5.1-10.8,7.7c-0.8,0.6-1.4,0.5-2.1-0.5c-4.4-6.3-8.8-12.5-13.2-18.7
		c-0.8-1.2-1.7-2.3-2.2,0.4c-1,5.5-3.5,10.6-7.1,14.8c-2.7,3.4-5.3,7.2-7.9,10.7c-1.3,1.7-1.8,1.5-2.5-0.9c-0.8-2.7-1.7-5.5-2.4-8.3
		c-0.5-2-1.2-3-2.5-2.3c-0.1,0.1-0.3,0.1-0.5,0.1c-5.3-0.2-10.5,0.2-15.6,2.8c0-16.2,0-32.4,0-48.7c2.9-0.4,5.8-1.2,8.7,0.6
		c1.2,0.7,2.2,0.3,3.2-0.9c1.6-2,3.4-3.6,5.1-5.5c4.9-5.7,8.8-13.5,13.3-20.1c1.4-2.1,1.5-2.3,2.6,0.3c4,9.3,8.1,18.5,12,27.8
		c1,2.3,1.8,2,2.7,0.3c1.3-2.2,2.7-4.4,3.9-6.7c0.8-1.6,1.6-1.6,2.7-0.9c6,4.2,12,8.4,18,12.5c1.8,1.2,3.6,3.7,5.5,0.6
		c0.1-0.1,0.2-0.1,0.3-0.1c2.1,0.1,4.2-0.7,6.3-0.6c2.8,0.2,5.7-0.1,8.4-0.8c2.5-0.7,4.1,0.4,5.4,3.8c0.4,1.2,1.1,2.2,1.9,2.5
		c4.7,1.3,9.2,4.4,14.1,4.1c0.4-0.1,0.8,0,1.1,0.3c2.5,2.5,5,1.7,7.5,0.4c0.8-0.4,1.6-0.7,2.4-1c2.4-0.6,4.7-2.9,7.1,0
		c0.2,0.2,0.6-0.1,0.9-0.1c3.6-0.4,7.2-0.9,10.9-1.3v26.3c-2.4,1.7-4.8,3.8-7.3,5C-125.8,1568.8-127,1572-126.9,1577z"/>
	<path id="Path_116" class="st3" d="M-114.1,1536l-11,1.3c-0.3,0-0.8,0.3-1,0.1c-2.4-2.9-4.8-0.6-7.2,0c-0.8,0.2-1.6,0.6-2.4,1
		c-2.6,1.3-5.1,2.2-7.7-0.4c-0.3-0.3-0.7-0.4-1.1-0.3c-4.9,0.4-9.5-2.8-14.3-4.1c-0.9-0.2-1.5-1.3-1.9-2.5c-1.3-3.5-2.9-4.7-5.4-3.9
		c-2.8,0.7-5.7,1-8.6,0.8c-2.2,0-4.3,0.8-6.4,0.7c-0.1,0-0.3,0-0.3,0.1c-2,3.1-3.8,0.6-5.6-0.7c-6.1-4.2-12.2-8.4-18.3-12.7
		c-1.1-0.8-1.9-0.8-2.8,0.9c-1.2,2.4-2.6,4.6-4,6.9c-1,1.7-1.8,2-2.8-0.3c-4-9.5-8.1-18.9-12.2-28.4c-1.1-2.6-1.2-2.5-2.6-0.3
		c-4.5,6.8-8.5,14.7-13.5,20.6c-1.7,2-3.5,3.7-5.2,5.7c-1,1.3-2,1.7-3.2,0.9c-2.9-1.8-5.9-1-8.8-0.6c0-12.5,0-24.9-0.1-37.4
		c0-1.5,0.2-2.1,1.1-1.9c0.4,0.1,0.9,0.1,1.3,0c47.3,0,94.6,0,141.9,0c0.7,0,1.4-0.1,2.1-0.1L-114.1,1536z"/>
	<path id="Path_117" class="st4" d="M-136.3,1732l20.9,1.9v122.1c-17.2,0-34.3,0-51.5,0c-0.8,0-1.5,0-2.3-0.1
		c-0.8-5.3-1.2-11-3.5-15.4c-1.1-2.1-2.3-4.3-3.3-6.5c-2.2-4.4-2.1-5,1-7.5c6.1-4.9,12.2-9.8,18.2-14.9c0.9-0.8,1.3-0.6,1.8,0.8
		c0.8,2.2,1.8,4.2,2.6,6.5c1.8,5.5,4.7,6.9,8.1,6.9c0.7,0,1.3-0.5,1.6-1.1c3.5-6.1,7.3-11.4,11.1-16.8c0.6-0.9,0.8-2.1,0.5-3.2
		c-1-5.6-1.9-11.3-2.8-17c-0.2-1.2-0.7-2.3-1.5-3.2c-2-2.3-3.9-4.6-5.9-6.9c-0.7-0.9-1-1.9-0.9-3c0-8.8,0.6-17.3,3.6-24.8
		c1-2.6,1.5-5.3,1.7-8.1C-136.6,1738.4-136.9,1735.1-136.3,1732z"/>
	<path id="Path_118" class="st5" d="M-126.9,1577c0-5,1.2-8.1,4.4-9.5c2.7-1.2,5.2-3.3,7.8-5v21.3c-1.4,0.1-2.6-1.1-3.9-1.9
		C-121.5,1580.3-124.2,1578.6-126.9,1577z"/>
	<path id="Path_119" class="st6" d="M-136.3,1731.9c-0.6,3.1-0.3,6.5-0.6,9.7c-0.2,2.8-0.7,5.5-1.7,8.1c-3,7.5-3.6,16-3.6,24.8
		c-0.1,1.1,0.3,2.2,0.9,3c2,2.3,3.9,4.7,5.9,6.9c0.8,0.9,1.3,2,1.5,3.2c0.9,5.7,1.8,11.3,2.8,17c0.3,1.1,0.1,2.3-0.5,3.2
		c-3.8,5.4-7.6,10.8-11.1,16.8c-0.3,0.7-0.9,1.1-1.6,1.1c-3.4,0-6.3-1.5-8.1-6.9c-0.8-2.3-1.8-4.2-2.6-6.5c-0.5-1.4-0.9-1.6-1.8-0.8
		c-6,5.1-12.1,10.1-18.2,14.9c-3.1,2.5-3.2,3.1-1,7.5c1.1,2.2,2.2,4.3,3.3,6.5c2.3,4.4,2.6,10.1,3.5,15.4l-17.7,0
		c0.2-1.6,0.3-3.3,0.6-4.9c0.9-6.3,1.9-12.6,2.9-18.9c0.2-1,0.5-2.2,0-2.9c-0.6-0.8-1.2,0.2-1.8,0.6c-0.6,0.5-1.1,1.1-1.7,1.7
		c-7.7,7-15.5,13.9-23.1,21.1c-1,0.9-2.4,1-2.8,3.3c-12.7,0-25.4,0.1-38.2,0.1c-2.4,0-4.9-0.1-7.3,0c-0.9,0-1.2-0.5-1.2-2.1
		c0-13.2,0.1-26.3,0.1-39.5c0.8,0.2,1.5,0.4,2.3,0.5c1.4,0.3,2.9,0.5,4-1.5c1.7-3.1,2.8-6.6,3.2-10.2c1.1-10.5,2.4-21,3.6-31.5
		c0.2-2.1,0.7-3.1,2.1-3.2c3-0.3,6-0.8,8.9-1.5c0.9-0.2,1.4,0.7,1.8,1.9c0.9,2.8,1.7,5.6,2.6,8.4c0.5,1.4,0.8,3.3,1.7,4
		c3.8,3.3,7.7,6.4,11.6,9.6c0.6,0.5,1,0.3,1.4-0.7c2.4-6.2,5.2-11.7,7.8-17.6c0.9-2.1,2.3-4,2.3-6.9c-0.1-4.8,0.3-9.5,0.3-14.2
		c0-2.8,0.8-6.4-0.2-8.3s-3-2.5-4.6-3.1c-2.8-1.1-4.3-3.5-4.5-8.7c-0.4-8.7-1.8-17.2-2.1-26c2.9-2.4,3.9-7.4,5.4-11.6
		c0.7-2.2,1.9-4.2,3.5-5.9c3.4-3,6.7-6.2,9.9-9.5c1.3-1.3,1.9-0.8,2.7,1.2c2.9,7.1,5.9,14.1,8.7,21.2c0.8,2,1.3,1.9,2.2,0.3
		c1.9-3.4,3.8-6.6,5.7-9.9c0.5-0.8,1-1.8,1.8-1.6c5.2,1.1,10.3,2.1,15.5,3.2c-0.1,2.6-0.5,5.3-1.2,7.8c-0.8,2.5-0.4,5.2,1.2,7.3
		c3.8,5.5,7.5,11.3,11.1,17.3c0.5,1.1,1.6,1.8,2.8,2c3.4,0.3,6.8,0.7,10.2,1.1C-137.2,1729.4-136.7,1730.6-136.3,1731.9z
		 M-177.5,1739.9c-0.2-0.5-0.5-1.1-0.8-1.5c-3.2-4.5-6.5-9-9.7-13.6c-0.9-1.2-1.5-0.9-2.2,0.4c-3.2,5-6.4,9.9-9.6,14.6
		c-0.8,1.1-1,2.6-0.3,3.8c3,7.2,6,14.4,8.9,21.6c0.6,1.4,1.1,1.3,1.7,0.1c3.8-8.1,7.7-16.1,11.5-24.2
		C-177.8,1740.8-177.6,1740.4-177.5,1739.9L-177.5,1739.9z"/>
	<path id="Path_120" class="st4" d="M-217.6,1705.5c0.3,8.8,1.7,17.3,2.1,26c0.2,5.3,1.7,7.7,4.5,8.7c1.6,0.6,3.6,1.2,4.6,3.1
		s0.2,5.5,0.2,8.3c0,4.7-0.4,9.5-0.3,14.2c0,2.9-1.4,4.8-2.3,6.9c-2.6,5.9-5.4,11.4-7.8,17.6c-0.4,1-0.8,1.2-1.4,0.7
		c-3.9-3.2-7.7-6.3-11.6-9.6c-0.9-0.8-1.2-2.6-1.7-4c-0.9-2.8-1.8-5.6-2.6-8.4c-0.4-1.2-0.8-2.1-1.8-1.9c-2.9,0.6-5.9,1.1-8.9,1.5
		c-1.4,0.1-1.9,1.2-2.1,3.2c-1.2,10.5-2.5,21-3.6,31.5c-0.4,3.6-1.5,7-3.2,10.2c-1.1,2-2.6,1.8-4,1.5c-0.8-0.1-1.5-0.4-2.3-0.5
		c0-19,0-38,0-57c1.2,0.5,2.4,0.9,3.6,1.4c1.1,0.5,2.4,0.2,3.1-0.7c4.3-4.7,8.7-9.2,13-13.9c1.6-1.7,3.6-3.1,2.4-7.6
		c-0.1-0.6-0.1-1.3,0-1.9c0.3-3.1,0.5-6.3,0.8-9.4c0.8-9.6,1.6-19.1,2.5-28.7c4.9,2.9,9.7,6,14.7,8.2
		C-218.9,1705.1-218.2,1705.3-217.6,1705.5z"/>
	<path id="Path_121" class="st6" d="M-234.2,1696.7c-0.8,9.6-1.6,19.1-2.5,28.7c-0.3,3.1-0.6,6.3-0.8,9.4c-0.1,0.6-0.1,1.3,0,1.9
		c1.2,4.4-0.8,5.8-2.4,7.6c-4.3,4.6-8.7,9.2-13,13.9c-0.8,0.9-2.1,1.2-3.1,0.7c-1.2-0.4-2.4-0.9-3.6-1.4c0-17.7,0-35.4-0.1-53.1
		c-0.1-1,0.2-1.9,0.9-2.6c3.9-3.7,7.9-7.5,11.8-11.3c0.5-0.5,1.2-0.7,1.9-0.3c2.9,1.2,5.8,2.4,8.7,3.5
		C-235.3,1694-234.7,1695.2-234.2,1696.7z"/>
	<path id="Path_122" class="st4" d="M-138,1728.3c-3.4-0.4-6.8-0.8-10.2-1.1c-1.2-0.1-2.3-0.9-2.8-2c-3.6-6-7.3-11.8-11.1-17.3
		c-1.5-2.1-2-4.8-1.2-7.3c0.7-2.6,1.1-5.2,1.2-7.8c0.6-1.1,1.2-2.1,1.8-3.3c1.6-3.1,3.5-3.5,5.3-1c4.7,6.5,9.5,13.1,14.3,19.5
		c0.8,1.1,1.3,2.5,1.4,3.9C-138.9,1717.4-138.4,1722.8-138,1728.3z"/>
	<path id="Path_123" class="st7" d="M-212.9,1855.8c0.4-2.3,1.8-2.4,2.8-3.3c7.7-7.2,15.4-14.1,23.1-21.1c0.6-0.5,1.1-1.2,1.7-1.7
		c0.6-0.5,1.2-1.4,1.8-0.6c0.5,0.7,0.2,1.9,0,2.9c-1,6.3-1.9,12.6-2.9,18.9c-0.2,1.6-0.4,3.3-0.6,4.9L-212.9,1855.8z"/>
	<path id="Path_124" class="st4" d="M-177.5,1739.9c-0.2,0.4-0.3,0.9-0.4,1.2c-3.8,8.1-7.7,16.1-11.5,24.2c-0.6,1.2-1.1,1.2-1.7-0.1
		c-3-7.2-6-14.4-8.9-21.6c-0.7-1.2-0.5-2.7,0.3-3.8c3.3-4.8,6.4-9.7,9.6-14.6c0.8-1.2,1.4-1.6,2.2-0.4c3.2,4.6,6.5,9,9.7,13.6
		C-177.9,1738.9-177.7,1739.4-177.5,1739.9z"/>
</g>
</svg>
