<svg id="LOGO-V-B" xmlns="http://www.w3.org/2000/svg" xmlns:xlink="http://www.w3.org/1999/xlink" width="209.453" height="334.988" viewBox="0 0 209.453 334.988">
  <defs>
    <clipPath id="clip-path">
      <circle id="Ellipse_1" data-name="Ellipse 1" cx="87.961" cy="87.961" r="87.961" fill="none"/>
    </clipPath>
  </defs>
  <g id="Group_5" data-name="Group 5" transform="translate(0 193.22)">
    <g id="Group_2" data-name="Group 2" transform="translate(0 59.349)">
      <g id="Group_1" data-name="Group 1">
        <path id="Path_1" data-name="Path 1" d="M-621.5,1612.42a12.946,12.946,0,0,1-5.755-1.068V1601.23a11.773,11.773,0,0,0,4.214.854,4.471,4.471,0,0,0,4.163-2.264,13.711,13.711,0,0,0,1.318-6.749v-61.12h9.319v60.523a30.985,30.985,0,0,1-1.662,10.678,15.079,15.079,0,0,1-4.694,6.9A10.91,10.91,0,0,1-621.5,1612.42Z" transform="translate(627.258 -1530.001)" fill="#fff"/>
        <path id="Path_2" data-name="Path 2" d="M-560.345,1554.383q0,11.981-4.488,18.416t-12.839,6.436q-8.383,0-12.872-6.419t-4.488-18.5q0-11.98,4.488-18.367t12.938-6.387q8.349,0,12.806,6.419T-560.345,1554.383Zm-25.511,0q0,8.251,2.079,12.574t6.106,4.324q8.119,0,8.119-16.9t-8.053-16.9q-4.093,0-6.172,4.307T-585.856,1554.383Z" transform="translate(621.344 -1529.563)" fill="#fff"/>
        <path id="Path_3" data-name="Path 3" d="M-534.962,1559.966v18.779h-8.977v-48.252h11.749q7.459,0,11.007,3.532t3.548,10.792q0,9.143-6.171,12.773l9.274,21.155h-9.6l-7.624-18.779Zm0-7.723h2.31q3.17,0,4.555-1.8a8.71,8.71,0,0,0,1.386-5.364q0-3.7-1.468-5.264a5.948,5.948,0,0,0-4.538-1.568h-2.245Z" transform="translate(611.969 -1529.734)" fill="#fff"/>
        <path id="Path_4" data-name="Path 4" d="M-471.853,1554.157q0,11.947-4.869,18.268t-14.01,6.32h-11.815v-48.252h12.906q8.415,0,13.1,6.221T-471.853,1554.157Zm-9.208.264q0-16.173-8.911-16.172h-3.6v32.641h2.9a7.789,7.789,0,0,0,7.261-4.109Q-481.061,1562.673-481.061,1554.421Z" transform="translate(604.373 -1529.734)" fill="#fff"/>
        <path id="Path_5" data-name="Path 5" d="M-434.462,1578.7l-2.773-12.178h-12.574l-2.773,12.178h-8.977l11.948-48.45h12.178l11.981,48.45Zm-4.456-20.133-2.574-11.221q-.231-1.023-1.04-5.132t-.973-5.5q-.43,2.839-1.089,6.254t-3.433,15.594Z" transform="translate(596.851 -1529.689)" fill="#fff"/>
        <path id="Path_6" data-name="Path 6" d="M-378.327,1578.745h-10.957l-14.919-34.952h-.429a42.437,42.437,0,0,1,.825,8.581v26.37h-8.317v-48.252H-401.1l14.786,34.588h.363a47.011,47.011,0,0,1-.627-8.251v-26.338h8.251Z" transform="translate(587.78 -1529.734)" fill="#fff"/>
      </g>
    </g>
    <g id="Group_3" data-name="Group 3" transform="translate(9.583 0)">
      <path id="Path_7" data-name="Path 7" d="M-581.613,1483.286q0,13.2-5.378,20.181t-15.477,6.982h-13.052v-53.306h14.256q9.3,0,14.475,6.873T-581.613,1483.286Zm-10.173.291q0-17.865-9.844-17.866H-605.6v36.06h3.208a8.607,8.607,0,0,0,8.022-4.539Q-591.786,1492.692-591.785,1483.577Z" transform="translate(615.521 -1456.924)" fill="#fff"/>
      <path id="Path_8" data-name="Path 8" d="M-554.564,1489.7v20.746h-9.917v-53.306h12.98q8.24,0,12.16,3.9t3.919,11.923q0,10.1-6.818,14.11l10.245,23.371H-542.6l-8.422-20.746Zm0-8.531h2.552q3.5,0,5.032-1.988t1.531-5.924q0-4.083-1.622-5.816a6.57,6.57,0,0,0-5.013-1.732h-2.48Z" transform="translate(606.155 -1456.924)" fill="#fff"/>
      <path id="Path_9" data-name="Path 9" d="M-494.726,1510.449h-24.028v-53.306h24.028v8.568h-14.111V1478.4h13.09v8.6h-13.09v14.766h14.111Z" transform="translate(597.764 -1456.924)" fill="#fff"/>
      <path id="Path_10" data-name="Path 10" d="M-455.641,1510.4l-3.062-13.454H-472.6l-3.063,13.454h-9.917l13.2-53.525h13.454l13.235,53.525Zm-4.922-22.24-2.844-12.4q-.256-1.13-1.149-5.67t-1.075-6.071q-.474,3.136-1.2,6.909t-3.792,17.228Z" transform="translate(591.675 -1456.875)" fill="#fff"/>
      <path id="Path_11" data-name="Path 11" d="M-411.93,1510.449l-10.136-45.394h-.4a74.141,74.141,0,0,1,.693,9.626v35.767h-9.188v-53.306h15.241l9.115,41.894h.292l9.043-41.894h15.46v53.306h-9.407v-36.132a85.1,85.1,0,0,1,.51-9.188H-391l-10.1,45.32Z" transform="translate(581.654 -1456.924)" fill="#fff"/>
    </g>
    <g id="Group_4" data-name="Group 4" transform="translate(26.45 116.724)">
      <path id="Path_12" data-name="Path 12" d="M-594.863,1599.832h11.907v2.336h-4.6v12.525h-2.7v-12.525h-4.6Z" transform="translate(594.863 -1599.832)" fill="#fff"/>
      <path id="Path_13" data-name="Path 13" d="M-567.308,1604.389a4.2,4.2,0,0,1-.893,2.7,4.646,4.646,0,0,1-2.565,1.556l3.984,6.045h-3.526l-3.274-5.793h-2.061v5.793h-2.7v-14.861h5.5a6.1,6.1,0,0,1,4.1,1.26A4.082,4.082,0,0,1-567.308,1604.389Zm-5.793,2.7a3.27,3.27,0,0,0,2.244-.676,2.279,2.279,0,0,0,.756-1.786,2.393,2.393,0,0,0-.688-1.786,2.826,2.826,0,0,0-2.061-.675h-2.793v4.924Z" transform="translate(591.832 -1599.832)" fill="#fff"/>
      <path id="Path_14" data-name="Path 14" d="M-558.056,1599.832h3.388l4.878,14.861h-2.863l-1.03-3.205H-559.2l-1.053,3.205h-2.863Zm-.458,9.617h4.167l-2.061-6.389Z" transform="translate(589.037 -1599.832)" fill="#fff"/>
      <path id="Path_15" data-name="Path 15" d="M-544.492,1599.832l3.617,11.473,3.664-11.473h2.84l-5.107,14.861h-2.839l-5.038-14.861Z" transform="translate(586.145 -1599.832)" fill="#fff"/>
      <path id="Path_16" data-name="Path 16" d="M-529.154,1599.832h9.572v2.336h-6.87v3.915h6.435v2.336h-6.435v3.916h6.87v2.358h-9.572Z" transform="translate(582.805 -1599.832)" fill="#fff"/>
      <path id="Path_17" data-name="Path 17" d="M-510.831,1612.335h6.114v2.358h-8.816v-14.861h2.7Z" transform="translate(579.939 -1599.832)" fill="#fff"/>
      <path id="Path_18" data-name="Path 18" d="M-493.291,1599.832l3.274,11.289,3.183-10.3H-485l3.366,10.35,3.48-11.335h3.046l-5.106,14.861h-2.839l-2.794-8.38-2.77,8.38h-2.84l-4.854-14.861Z" transform="translate(576.779 -1599.832)" fill="#fff"/>
      <path id="Path_19" data-name="Path 19" d="M-468.017,1599.832h2.7v14.861h-2.7Z" transform="translate(571.586 -1599.832)" fill="#fff"/>
      <path id="Path_20" data-name="Path 20" d="M-462.773,1599.832h11.907v2.336h-4.6v12.525h-2.7v-12.525h-4.6Z" transform="translate(570.624 -1599.832)" fill="#fff"/>
      <path id="Path_21" data-name="Path 21" d="M-443.552,1599.832v6.205h6.48v-6.205h2.7v14.861h-2.7v-6.3h-6.48v6.3h-2.7v-14.861Z" transform="translate(567.593 -1599.832)" fill="#fff"/>
      <path id="Path_22" data-name="Path 22" d="M-417.974,1599.832h3.388l4.878,14.861h-2.863l-1.03-3.205h-5.519l-1.053,3.205h-2.863Zm-.458,9.617h4.167l-2.061-6.389Z" transform="translate(563.332 -1599.832)" fill="#fff"/>
      <path id="Path_23" data-name="Path 23" d="M-401.431,1599.832l6.549,10.534v-10.534h2.7v14.861h-2.747l-6.755-10.9v10.9h-2.7v-14.861Z" transform="translate(559.909 -1599.832)" fill="#fff"/>
      <path id="Path_24" data-name="Path 24" d="M-381.992,1599.832h3.389l4.877,14.861h-2.862l-1.03-3.205h-5.519l-1.053,3.205h-2.863Zm-.457,9.617h4.167l-2.061-6.389Z" transform="translate(556.729 -1599.832)" fill="#fff"/>
    </g>
  </g>
  <g id="Group_8" data-name="Group 8" transform="translate(16.765)">
    <g id="Group_7" data-name="Group 7" clip-path="url(#clip-path)">
      <g id="Group_6" data-name="Group 6" transform="translate(-0.503 -3.518)">
        <path id="Path_25" data-name="Path 25" d="M-424.381,1285.019v53.269l-26.412-.915a7.012,7.012,0,0,0-2.161-1.787c-.559-2.64-1.142-5.278-1.663-7.921a2.864,2.864,0,0,0-1.761-1.881c-6.033-3.14-12.026-6.314-18.036-9.474a6.032,6.032,0,0,0-6.757.482c-.709.55-1.49,1.06-2.238,1.587q-9.8-.768-19.607-1.541a3.277,3.277,0,0,0-2.274.772c-2.435,1.593-4.908,3.163-7.271,4.8-1.126.781-1.785.839-2.792-.125-3.623-3.46-7.421-6.841-11.039-10.3-1-.955-1.762-1.207-3.4-.566q-6.19,2.426-12.589,4.619a10.546,10.546,0,0,0-4.47,2.854c-1.929,2.039-3.189,4.464-6.806,5.628-.809-.087-1.635-.131-2.425-.27-6.3-1.1-12.393-2.605-18.548-3.992a4.331,4.331,0,0,0-2.77-1.48c-3.683-.533-7.349-1.119-11.017-1.7a4.45,4.45,0,0,0-2.365.153q-7.432,2.771-14.909,5.49c-.805.292-1.185.635-1.182,1.271.044,8.583.052,17.166.069,25.749l.007,27.64c-.02,6.384-.025,12.768-.082,19.152-.007.776.39,1.017,1.543,1,3.095-.04,6.191-.01,9.286-.013q24.145-.021,48.288-.045h32.875l22.445.006c.962.011,1.924.033,2.885.033q32.588.012,65.175.02c-.372.562-1.115.255-1.651.256q-27.036.029-54.072.016-62.637,0-125.274.021c-1.441,0-1.964-.1-1.963-1.205q.08-89.726.017-179.453c0-.9.127-1.217,1.74-1.216q89.776.058,179.552.048c.535,0,1.279-.305,1.651.255-.892.016-1.785.043-2.676.043q-88.379,0-176.756,0c-.55,0-1.107.038-1.648-.007-1.11-.092-1.382.22-1.376.919.053,5.927.055,11.855.071,17.782l-.01,23.616c-.011,4.481-.029,8.963-.03,13.444,0,1.551-.772,3.382,2.906,3.685a.516.516,0,0,1,.164.08c3.459,1.713,6.928,3.416,10.374,5.14a13.285,13.285,0,0,0,8.656,1.384c5.079-.973,10.083-2.117,15.161-3.095,1.921-.37,3.05-1.062,3.62-2.3.975-2.123,2.737-3.753,6.166-4.52a4.982,4.982,0,0,1,3.746.327c3.465,1.779,7.024,3.479,10.494,5.253a6.713,6.713,0,0,0,4.6.6c3.032-.583,6.116-1.045,9.172-1.572a8.02,8.02,0,0,1,4.339.4c3.525,1.318,7.141,2.529,10.694,3.816a3.884,3.884,0,0,0,2.745.074,4.319,4.319,0,0,1,3.278.145,41.99,41.99,0,0,1,4.169,1.74c4.234,2.162,8.527,4.274,12.779,6.421a2.46,2.46,0,0,0,2.681.036c4.909-2.755,9.925-5.427,14.845-8.175,1.084-.6,1.562-.439,2.148.3,2.041,2.563,4.145,5.1,6.218,7.656,2.268,2.791,4.505,5.592,6.818,8.366.4.483.684,1.153,1.752,1.227,1.282.089,4.493-1.5,4.841-2.377,1.08-2.712,2.255-5.409,3.165-8.145.456-1.373,1.475-2.022,3.55-2.1,1.984-.079,3.961-.238,5.941-.356Q-433.083,1285.535-424.381,1285.019Z" transform="translate(607.341 -1215.921)" fill="#84cecb"/>
        <path id="Path_26" data-name="Path 26" d="M-424.276,1292.581q-8.7.518-17.4,1.035c-1.98.118-3.957.277-5.941.356-2.076.083-3.094.732-3.55,2.1-.91,2.736-2.084,5.434-3.165,8.145-.348.875-3.559,2.466-4.841,2.377-1.068-.074-1.349-.744-1.752-1.227-2.312-2.774-4.549-5.575-6.818-8.366-2.074-2.552-4.177-5.093-6.218-7.656-.586-.737-1.064-.9-2.148-.3-4.919,2.748-9.936,5.42-14.845,8.175a2.46,2.46,0,0,1-2.681-.036c-4.252-2.147-8.545-4.259-12.779-6.421a41.993,41.993,0,0,0-4.169-1.74,4.319,4.319,0,0,0-3.278-.145,3.884,3.884,0,0,1-2.745-.074c-3.553-1.287-7.169-2.5-10.694-3.816a8.02,8.02,0,0,0-4.339-.4c-3.057.527-6.141.989-9.172,1.572a6.713,6.713,0,0,1-4.6-.6c-3.47-1.774-7.029-3.474-10.494-5.253a4.982,4.982,0,0,0-3.746-.327c-3.429.768-5.191,2.4-6.166,4.52-.571,1.243-1.7,1.935-3.62,2.3-5.078.977-10.081,2.122-15.161,3.095a13.285,13.285,0,0,1-8.656-1.384c-3.446-1.724-6.915-3.427-10.374-5.14a.516.516,0,0,0-.164-.08c-3.677-.3-2.906-2.134-2.906-3.685,0-4.481.019-8.963.03-13.444a95.715,95.715,0,0,1,19.78-1.361,2.647,2.647,0,0,0,.609-.065,2.657,2.657,0,0,1,3.191,1.1c.924,1.363,2,2.681,3.04,4.009.926,1.182,1.539,1.285,3.157.457,3.364-1.72,6.614-3.539,10.049-5.193,3.951-1.9,7.417-4,8.968-7.194.63-1.294,1.684-.769,2.753-.185,5.548,3.032,11.133,6.033,16.666,9.077a3.171,3.171,0,0,0,2.623.25c4.564-1.258,9.182-2.437,13.715-3.741a4.118,4.118,0,0,1,3.99.476c3.167,2.262,6.482,4.434,9.7,6.663a2.624,2.624,0,0,0,2.525.364c5.912-1.713,11.884-3.338,17.775-5.082a6.987,6.987,0,0,1,4.085-.047c6.684,1.761,13.279,3.74,20.573,4.2a8.452,8.452,0,0,1,4.43,1.527c1.815,1.232,3.806,2.352,5.687,3.544a2.029,2.029,0,0,0,2.162.178c4.1-1.823,8.234-3.615,12.354-5.417,3.286.8,6.551,1.634,9.865,2.375a17.949,17.949,0,0,0,4.691.9Z" transform="translate(607.236 -1223.482)" fill="#42bfbc"/>
        <path id="Path_27" data-name="Path 27" d="M-438.809,1263.449c-4.121,1.8-8.253,3.595-12.354,5.417a2.029,2.029,0,0,1-2.162-.178c-1.881-1.191-3.872-2.312-5.687-3.544a8.452,8.452,0,0,0-4.43-1.527c-7.295-.461-13.889-2.441-20.573-4.2a6.988,6.988,0,0,0-4.085.047c-5.891,1.744-11.863,3.369-17.775,5.082a2.624,2.624,0,0,1-2.525-.364c-3.222-2.229-6.537-4.4-9.7-6.663a4.118,4.118,0,0,0-3.99-.476c-4.534,1.3-9.151,2.483-13.716,3.741a3.171,3.171,0,0,1-2.623-.25c-5.533-3.044-11.118-6.045-16.666-9.077-1.07-.585-2.124-1.11-2.753.185-1.551,3.191-5.017,5.291-8.968,7.194-3.435,1.654-6.685,3.473-10.049,5.193-1.618.828-2.231.724-3.157-.457-1.041-1.328-2.116-2.646-3.04-4.009a2.657,2.657,0,0,0-3.191-1.1,2.647,2.647,0,0,1-.609.065,95.714,95.714,0,0,0-19.78,1.361q0-11.808.01-23.616c3.691-.193,7.4-.578,11.018.287a5.827,5.827,0,0,0,4.036-.45c2.082-.958,4.334-1.755,6.438-2.693,6.236-2.782,11.179-6.535,16.809-9.774,1.812-1.042,1.854-1.092,3.261.149,5.093,4.495,10.242,8.962,15.242,13.5,1.249,1.134,2.218.965,3.454.165,1.667-1.08,3.4-2.124,4.954-3.271a3.557,3.557,0,0,1,3.433-.418q11.339,3.08,22.742,6.057c2.258.591,4.517,1.772,7.018.314a.973.973,0,0,1,.4-.033c2.685.056,5.324-.318,8.016-.312a92.355,92.355,0,0,0,10.677-.373c3.124-.362,5.182.179,6.78,1.865a3.813,3.813,0,0,0,2.416,1.19c5.943.646,11.666,2.156,17.823,1.965a3.921,3.921,0,0,1,1.408.142c3.142,1.226,6.33.814,9.549.194.988-.19,1.991-.378,3.007-.471,2.975-.274,5.957-1.39,8.958,0a3.644,3.644,0,0,0,1.195-.046l13.751-.634V1256.4c-3.091.827-6.1,1.868-9.3,2.427C-437.385,1259.495-438.852,1261.023-438.809,1263.449Z" transform="translate(607.214 -1217.193)" fill="#00a5a5"/>
        <path id="Path_28" data-name="Path 28" d="M-424.268,1242.426l-13.751.634a3.644,3.644,0,0,1-1.195.046c-3-1.39-5.982-.274-8.958,0-1.017.093-2.019.281-3.007.471-3.219.62-6.407,1.032-9.549-.194a3.921,3.921,0,0,0-1.408-.142c-6.157.191-11.881-1.319-17.823-1.965a3.813,3.813,0,0,1-2.416-1.19c-1.6-1.686-3.656-2.226-6.78-1.865a92.355,92.355,0,0,1-10.677.373c-2.692-.006-5.331.368-8.016.312a.973.973,0,0,0-.4.033c-2.5,1.457-4.759.277-7.018-.314q-11.4-2.986-22.742-6.057a3.557,3.557,0,0,0-3.433.418c-1.555,1.147-3.286,2.191-4.954,3.271-1.235.8-2.2.969-3.454-.165-5-4.539-10.149-9.006-15.242-13.5-1.407-1.242-1.449-1.191-3.261-.149-5.63,3.238-10.574,6.992-16.809,9.774-2.1.938-4.356,1.735-6.438,2.693a5.827,5.827,0,0,1-4.036.45c-3.62-.865-7.327-.48-11.018-.287-.016-5.928-.018-11.855-.071-17.782-.007-.7.265-1.011,1.376-.919.541.045,1.1.007,1.648.007q88.378,0,176.756,0c.892,0,1.784-.028,2.676-.043Z" transform="translate(607.228 -1215.997)" fill="#007b89"/>
        <path id="Path_29" data-name="Path 29" d="M-427.336,1364.669l26.412.915v59.248q-32.588-.01-65.175-.02c-.962,0-1.924-.021-2.886-.033-1.075-2.6-1.486-5.359-4.4-7.488-1.422-1.041-2.85-2.08-4.236-3.142-2.793-2.141-2.614-2.432,1.306-3.632q11.58-3.547,23.056-7.24c1.173-.379,1.64-.275,2.275.385,1.027,1.069,2.308,2.036,3.263,3.13,2.318,2.654,6.009,3.367,10.294,3.36a3.507,3.507,0,0,0,2.03-.539c4.384-2.938,9.225-5.537,14.031-8.16.807-.441.937-.911.652-1.554q-1.814-4.1-3.529-8.226a3.183,3.183,0,0,0-1.858-1.543c-2.524-1.1-4.985-2.253-7.495-3.364-.821-.364-1.2-.821-1.194-1.473.06-4.246.771-8.372,4.574-12.009a7.379,7.379,0,0,0,2.147-3.908C-427.716,1367.809-428.147,1366.2-427.336,1364.669Z" transform="translate(583.884 -1243.217)" fill="#e47625"/>
        <path id="Path_30" data-name="Path 30" d="M-401.088,1270.987c-.042-2.426,1.424-3.954,5.258-4.625,3.2-.559,6.206-1.6,9.3-2.427v10.327a17.949,17.949,0,0,1-4.691-.9C-394.537,1272.621-397.8,1271.785-401.088,1270.987Z" transform="translate(569.493 -1224.732)" fill="#84cecb"/>
        <path id="Path_31" data-name="Path 31" d="M-450.689,1358.756c-.812,1.527-.38,3.14-.729,4.709a7.379,7.379,0,0,1-2.147,3.908c-3.8,3.637-4.514,7.763-4.574,12.009-.009.651.372,1.109,1.194,1.473,2.51,1.11,4.971,2.268,7.495,3.364a3.182,3.182,0,0,1,1.858,1.543q1.723,4.12,3.529,8.226c.284.643.155,1.113-.652,1.554-4.807,2.623-9.648,5.222-14.031,8.16a3.508,3.508,0,0,1-2.03.539c-4.285.007-7.976-.706-10.294-3.36-.955-1.094-2.236-2.062-3.263-3.13-.634-.661-1.1-.764-2.275-.385q-11.47,3.7-23.056,7.24c-3.92,1.2-4.1,1.491-1.306,3.632,1.386,1.062,2.814,2.1,4.236,3.142,2.91,2.129,3.321,4.892,4.4,7.488l-22.444-.006c.238-.8.414-1.6.722-2.387,1.2-3.061,2.44-6.115,3.665-9.171.192-.479.578-1.076-.045-1.409-.725-.388-1.547.073-2.261.3-.74.233-1.413.556-2.14.809-9.766,3.4-19.562,6.767-29.271,10.238-1.221.436-3,.491-3.546,1.622q-24.143.023-48.288.045c-3.1,0-6.191-.027-9.286.013-1.154.015-1.551-.226-1.543-1,.057-6.383.061-12.767.082-19.151.95.087,1.9.192,2.851.259,1.8.125,3.68.235,5.035-.731,1.971-1.406,3.481-2.97,4.033-4.939,1.431-5.111,3.049-10.2,4.562-15.3.3-1.012.915-1.519,2.7-1.574,3.756-.118,7.5-.434,11.242-.709a2.314,2.314,0,0,1,2.245.928c1.1,1.358,2.167,2.726,3.316,4.065.6.7.967,1.585,2.109,1.958,4.861,1.591,9.778,3.111,14.665,4.667a1.473,1.473,0,0,0,1.713-.323c2.976-2.989,6.556-5.678,9.817-8.525,1.174-1.025,2.942-1.926,2.892-3.354-.082-2.312.434-4.6.425-6.9,0-1.368.953-3.089-.3-4.015s-3.778-1.227-5.838-1.523c-3.59-.514-5.408-1.693-5.712-4.245-.5-4.222-2.248-8.351-2.607-12.6,3.617-1.164,4.877-3.589,6.806-5.628a10.546,10.546,0,0,1,4.47-2.854q6.388-2.194,12.589-4.619c1.636-.641,2.4-.389,3.4.566,3.618,3.463,7.416,6.843,11.039,10.3,1.008.963,1.666.906,2.792.125,2.363-1.638,4.836-3.208,7.271-4.8a3.277,3.277,0,0,1,2.274-.772q9.8.78,19.607,1.541a8.533,8.533,0,0,1-1.517,3.788c-1.017,1.546-.282,2.527,1.5,3.52q7.241,4.029,14.005,8.411a6.793,6.793,0,0,0,3.524.948c4.315.169,8.629.359,12.942.54A7.012,7.012,0,0,1-450.689,1358.756Zm-52.107,3.863a7.121,7.121,0,0,0-.968-.751c-4.087-2.2-8.2-4.38-12.279-6.589a2.466,2.466,0,0,0-2.819.172c-4,2.4-8.042,4.781-12.16,7.1-1.107.623-1.17,1.108-.394,1.825q5.684,5.241,11.323,10.5a1.467,1.467,0,0,0,2.15.065q7.3-5.863,14.583-11.74A6.418,6.418,0,0,0-502.8,1362.619Z" transform="translate(607.237 -1237.304)" fill="#f0872c"/>
        <path id="Path_32" data-name="Path 32" d="M-553.535,1347.968c.359,4.248,2.1,8.377,2.607,12.6.3,2.552,2.122,3.731,5.712,4.245,2.06.3,4.585.6,5.838,1.523s.3,2.646.3,4.015c.009,2.3-.506,4.591-.425,6.9.05,1.428-1.718,2.33-2.892,3.354-3.261,2.847-6.841,5.536-9.817,8.525a1.474,1.474,0,0,1-1.713.323c-4.888-1.556-9.8-3.076-14.665-4.667-1.142-.373-1.51-1.26-2.109-1.958-1.149-1.338-2.219-2.707-3.316-4.065a2.314,2.314,0,0,0-2.245-.928c-3.742.276-7.486.592-11.242.709-1.782.055-2.4.563-2.7,1.574-1.513,5.1-3.13,10.189-4.562,15.3-.552,1.969-2.062,3.533-4.033,4.939-1.355.966-3.235.856-5.035.731-.954-.067-1.9-.171-2.851-.259q0-13.821-.007-27.641c1.539.221,3.077.449,4.618.664a7.436,7.436,0,0,0,3.969-.331c5.468-2.259,10.967-4.485,16.446-6.732,2.047-.839,4.559-1.517,3-3.664-.186-.257-.076-.63-.01-.942.323-1.519.679-3.035,1.021-4.552q1.564-6.964,3.126-13.927c6.156,1.386,12.252,2.892,18.548,3.992C-555.17,1347.837-554.344,1347.881-553.535,1347.968Z" transform="translate(607.22 -1239.37)" fill="#e47625"/>
        <path id="Path_33" data-name="Path 33" d="M-574.524,1342.973q-1.563,6.963-3.126,13.927c-.341,1.517-.7,3.033-1.021,4.552-.066.312-.176.685.01.942,1.555,2.147-.958,2.825-3,3.664-5.479,2.247-10.978,4.474-16.446,6.732a7.436,7.436,0,0,1-3.969.331c-1.542-.215-3.079-.443-4.618-.664-.016-8.583-.025-17.166-.069-25.749,0-.636.376-.978,1.181-1.271q7.476-2.72,14.909-5.49a4.449,4.449,0,0,1,2.365-.153c3.668.581,7.334,1.166,11.017,1.7A4.331,4.331,0,0,1-574.524,1342.973Z" transform="translate(607.236 -1238.636)" fill="#f0872c"/>
        <path id="Path_34" data-name="Path 34" d="M-425.546,1357.966c-4.314-.181-8.627-.371-12.942-.54a6.793,6.793,0,0,1-3.524-.948q-6.778-4.366-14.005-8.411c-1.782-.993-2.518-1.974-1.5-3.52A8.532,8.532,0,0,0-456,1340.76c.748-.527,1.529-1.037,2.238-1.587a6.032,6.032,0,0,1,6.757-.482c6.009,3.16,12,6.334,18.036,9.474a2.864,2.864,0,0,1,1.761,1.881C-426.688,1352.688-426.1,1355.327-425.546,1357.966Z" transform="translate(579.932 -1238.301)" fill="#e47625"/>
        <path id="Path_35" data-name="Path 35" d="M-534.372,1435.334c.542-1.13,2.325-1.186,3.546-1.622,9.709-3.471,19.505-6.836,29.271-10.238.727-.253,1.4-.576,2.14-.809.714-.224,1.536-.686,2.261-.3.623.333.237.93.045,1.409-1.225,3.056-2.466,6.11-3.665,9.171-.308.784-.484,1.59-.722,2.387Z" transform="translate(593.951 -1253.777)" fill="#e47625"/>
        <path id="Path_36" data-name="Path 36" d="M-485.976,1367.668a6.418,6.418,0,0,1-.564.581q-7.284,5.874-14.583,11.74a1.467,1.467,0,0,1-2.15-.065q-5.64-5.262-11.323-10.5c-.776-.717-.714-1.2.394-1.825,4.118-2.316,8.16-4.692,12.16-7.1a2.466,2.466,0,0,1,2.819-.172c4.077,2.209,8.193,4.388,12.279,6.589A7.121,7.121,0,0,1-485.976,1367.668Z" transform="translate(590.417 -1242.353)" fill="#e47625"/>
      </g>
      <path id="Path_37" data-name="Path 37" d="M-440.054,1335.336s-2.88-4.9-4.51-6.443c0,0-3.415-3.584-1.822-7.04l-.167,0s-.38-4.671-3.681-6.255c0,0-2.221-4.552-4.554-4.779,0,0,1.092-3.469-1.549-4.7,0,0-4.512.05-6.81-1.508a23.83,23.83,0,0,0-6.3-1.661l-.186-.141c1.635-3.326,1.54-8.507-2.464-15.461a25.828,25.828,0,0,1-3.356-9.433,36.64,36.64,0,0,1,.007-5.364c.007-.046.013-.1.02-.141.06-.258.136-.621.21-1.034a8.855,8.855,0,0,1,.309-1.035l-.2.378c.494-3.4.476-9.51-6.278-8.787h-.007a24.989,24.989,0,0,1,.068-4.8l-.027,0,.649-.7a8.667,8.667,0,0,0,3.112-4.971.837.837,0,0,0,.376-1.182l.008-4.118a7.658,7.658,0,0,0-6.672-7.19c-5.631-1.64-8.761,4.962-8.761,4.962l.007.016c-4.6.2-8.189,1.508-8.174,3.068.016,1.646,4.029,2.939,9,2.924-.169,1.147-.509,2.49-1.212,2.68-.849.229,1.369,1.029,1.369,1.029.029.075.019.055.05.129.04.095,1.578,3.38,1.578,3.38a.868.868,0,0,0,.382.434l0,.011.024,0a.985.985,0,0,0,.479.115,1.839,1.839,0,0,0,.393-.051l2.046.148a5.254,5.254,0,0,1,.207,3.854c-.035,0-4.737-.326-4.388,5.008a4.34,4.34,0,0,0,.076.43l-.915,4.322s-4.477,13.859-12.157,16.541c0,0-1.76,1.438-.981,1.823l-7.4,4.827s-1.6,4.568.677,5.245l.145,1.018c-1.255-.172-3.727-.042-5.144,3.182,0,0-7.925,2.792-9.359,6.585,0,0-6.159,12-17.352,5.547,0,0-4.781-2.454-4.643-4.532l.06-2.329-1.336-.035.026-1s-.149-.67-.651-.683l.052-2s-.158-.336-.994-.359l.039-1.5s-1.5-.2-1.138-1.194.689-.815.021-.832c0,0-.989-.525.553-1.984l.193-.994s-1.477-1.037-3.361.746a3.607,3.607,0,0,1-2.307-1.226l-4.851.208-1.19.8s-8.33-.881-10.034.407c0,0-5.472,4.854-4.189,6.885l1.323.534s-1.242,2.8,2.11,2.385c0,0,.407.427,1.272-.717l2,.052a8.324,8.324,0,0,0,4.289,2.108c2.333.227,11.783,9.461,12.754,10.651,0,0,6.612,9.161,12.425,10.476a14.929,14.929,0,0,0,13.4-1.319s3.059,4.407.807,7.513c0,0-4.629,4.543-4.579,9.039,0,0-4.487,5.545-4.35,6.714,0,0-2.138,5.106,2.331,6.72l6.608,9.328s.157,6.83,3.106,9.07l-.647,5.644s.932,2.688,3.818.932a4.594,4.594,0,0,0,2.1-3.776l.06-2.329s-3.813-1.1-1.929-2.88l.5.179-.415-3.34s-9.257-10.228-9.457-15.4c0,0-.38-4.671,2.334-6.267,0,0,2.355-.605,4.123-4.389a8.289,8.289,0,0,1,1.134-1.609c.6.549,1.8.9,4.089.687,0,0,.5.01,1.235-.03l3.621,11.7s-1.764,3.617-.168,6.489c0,0,.612,2.18,2.268,2.722,0,0,.43,9.168.883,11.011a9.068,9.068,0,0,0-1.187,7.129s-.536,1.318-1.7.955c0,0-5.694.519-4.085,2.891,0,0-.189.828,2.144,1.054l7.685.032.051-2s-.8-1.186.043-1.664c0,0,2.342-.106.93-3.639,0,0-2.994-13.4-.685-18.664,0,0,1.576-2.79-.649-7.176,0,0,.486-8.559-.183-12.339,1.017-.447,2.175-1.364.874-3.048a6.575,6.575,0,0,1-.06-3.554,2.166,2.166,0,0,1,.362-.014s16.232,5.413,27.731.049c0,0,1.527,5.533,3.971,7.927,0,0,1.225,17.181.009,18.981a9.6,9.6,0,0,0-.575,2.815s-6.7,13.646-9.052,14.085l-.681.483s-.668-.017-.531,1.151c0,0,.119,1.835-2.223,1.941a9.729,9.729,0,0,0-4.191.558s-2.051,1.779-.073,2.829a10.19,10.19,0,0,0,6.837.509l1.721-1.953s-1.776-2.377,1.581-2.957l.5.18,10.752-15.207s.54-1.484,1.709-1.454c0,0,4.375-1.219,2.629-4.76,0,0-1.533-18.187,2.047-20.926l9.15,7.895s9.973,8.416,9.32,14.226c0,0,.465,7.838,1.719,11.033l-.877,14.463s-4.486-.948-3.931,3.4l.154.5,6.687-.161,2.183-.443s.874-1.476-1.562-4.2l-.321-.508,2.227-2.107-.35-25.15.237-2.658s-7.5-7.186-7.571-10.85c0,0-4.249-10.1-3.306-14.237,0,0,1.187-7.129-.019-12.154l.266-3.823a14.188,14.188,0,0,1,1.84,6.374,13.757,13.757,0,0,0,2.015,6.045s1.785,2.044,1.329,6.694c0,0,2.794,8.23,4.772,9.28l.334.009-1.729-4.207,2.6,2.73S-438.766,1337.2-440.054,1335.336Zm-48.35-45.644c-.294,1.493-3.668,3.044-3.668,3.044l-6.455-1.279c2.539-1.053,9.723-13.319,9.723-13.319,1.09,0,3.184,3.024,2.969,6.214C-486,1286.856-488.4,1289.692-488.4,1289.692Z" transform="translate(601.316 -1223.62)" fill="#fff"/>
    </g>
  </g>
</svg>
