<svg xmlns="http://www.w3.org/2000/svg" xmlns:xlink="http://www.w3.org/1999/xlink" viewBox="0 0 232.34 106.15"><defs><style>.cls-1{fill:none;}.cls-2{fill:#e37625;}.cls-3{fill:#44c0bd;}.cls-4{clip-path:url(#clip-path);}.cls-5{fill:#85cecb;}.cls-6{fill:#06a6a6;}.cls-7{fill:#047c89;}.cls-8{fill:#ef872b;}.cls-9{fill:#fff;}</style><clipPath id="clip-path"><circle class="cls-1" cx="51.61" cy="53.37" r="51.31"/></clipPath></defs><title>full-h-oscuros</title><g id="Layer_2" data-name="Layer 2"><g id="Layer_1-2" data-name="Layer 1"><path class="cls-2" d="M113.52,94.67a7.6,7.6,0,0,1-3.36-.62V88.14a6.88,6.88,0,0,0,2.46.5A2.6,2.6,0,0,0,115,87.32a7.91,7.91,0,0,0,.77-3.94V47.73h5.44V83a18,18,0,0,1-1,6.23,8.83,8.83,0,0,1-2.74,4A6.36,6.36,0,0,1,113.52,94.67Z"/><path class="cls-2" d="M145.74,61.07q0,7-2.62,10.74a9.36,9.36,0,0,1-15,0q-2.62-3.75-2.62-10.79t2.62-10.71a8.64,8.64,0,0,1,7.54-3.73,8.54,8.54,0,0,1,7.47,3.74Q145.75,54.08,145.74,61.07Zm-14.88,0a17.41,17.41,0,0,0,1.21,7.33,3.84,3.84,0,0,0,3.56,2.53q4.74,0,4.74-9.86t-4.7-9.86a3.87,3.87,0,0,0-3.6,2.51A17.49,17.49,0,0,0,130.86,61.07Z"/><path class="cls-2" d="M155.08,64.23v11h-5.24V47h6.86q4.35,0,6.42,2.06c1.38,1.38,2.07,3.47,2.07,6.3,0,3.55-1.2,6-3.6,7.45L167,75.18h-5.6l-4.45-11Zm0-4.51h1.35a3.16,3.16,0,0,0,2.66-1,5.14,5.14,0,0,0,.8-3.13,4.45,4.45,0,0,0-.85-3.07,3.47,3.47,0,0,0-2.65-.91h-1.31Z"/><path class="cls-2" d="M187.46,60.84c0,4.64-.94,8.2-2.84,10.65a9.68,9.68,0,0,1-8.17,3.69h-6.89V47h7.53a9,9,0,0,1,7.64,3.63Q187.46,54.29,187.46,60.84Zm-5.37.15q0-9.43-5.2-9.43H174.8v19h1.69a4.56,4.56,0,0,0,4.24-2.4Q182.09,65.8,182.09,61Z"/><path class="cls-2" d="M204.89,75.18l-1.62-7.1h-7.33l-1.62,7.1h-5.24l7-28.26h7.11l7,28.26Zm-2.6-11.74-1.5-6.55c-.09-.4-.29-1.4-.61-3s-.5-2.67-.57-3.21c-.16,1.1-.38,2.32-.63,3.65s-.93,4.36-2,9.1Z"/><path class="cls-2" d="M232.34,75.18H226l-8.7-20.39H217a24.77,24.77,0,0,1,.48,5V75.18h-4.85V47h6.43l8.62,20.18h.22a26.8,26.8,0,0,1-.37-4.81V47h4.81Z"/><path class="cls-2" d="M135.53,27.35q0,7.69-3.14,11.77t-9,4.07h-7.61V12.1h8.31a10,10,0,0,1,8.45,4C134.52,18.78,135.53,22.52,135.53,27.35Zm-5.94.17q0-10.42-5.74-10.43h-2.32v21h1.87a5,5,0,0,0,4.68-2.65C129.09,33.72,129.59,31.06,129.59,27.52Z"/><path class="cls-2" d="M145.84,31.09v12.1h-5.78V12.1h7.57c3.21,0,5.57.75,7.09,2.27s2.29,3.84,2.29,7q0,5.88-4,8.23l6,13.63h-6.19l-4.91-12.1Zm0-5h1.49A3.47,3.47,0,0,0,150.27,25a5.62,5.62,0,0,0,.89-3.45,4.94,4.94,0,0,0-.94-3.4,3.87,3.87,0,0,0-2.93-1h-1.45Z"/><path class="cls-2" d="M175.86,43.19h-14V12.1h14v5h-8.24V24.5h7.64v5h-7.64v8.62h8.24Z"/><path class="cls-2" d="M195.1,43.19l-1.78-7.85h-8.11l-1.78,7.85h-5.79L185.34,12h7.85l7.72,31.22Zm-2.87-13L190.57,23c-.09-.44-.32-1.55-.67-3.31s-.55-2.95-.62-3.54c-.19,1.22-.42,2.56-.7,4s-1,4.81-2.22,10Z"/><path class="cls-2" d="M214.76,43.19l-5.91-26.48h-.24a43.11,43.11,0,0,1,.41,5.62V43.19h-5.36V12.1h8.89l5.31,24.43H218l5.28-24.43h9V43.19h-5.49V22.11a49.38,49.38,0,0,1,.3-5.36H227l-5.89,26.44Z"/><path class="cls-3" d="M125.59,80.06h6.94v1.36h-2.68v7.31h-1.58V81.42h-2.68Z"/><path class="cls-3" d="M139.89,82.72a2.42,2.42,0,0,1-.52,1.57,2.66,2.66,0,0,1-1.49.91l2.32,3.53h-2.06l-1.91-3.38H135v3.38h-1.57V80.06h3.2a3.54,3.54,0,0,1,2.39.73A2.41,2.41,0,0,1,139.89,82.72Zm-3.38,1.57a1.92,1.92,0,0,0,1.31-.39,1.3,1.3,0,0,0,.44-1,1.38,1.38,0,0,0-.4-1,1.6,1.6,0,0,0-1.2-.4H135v2.87Z"/><path class="cls-3" d="M143.66,80.06h2l2.84,8.67h-1.67l-.6-1.87H143l-.61,1.87h-1.67Zm-.27,5.61h2.44l-1.21-3.73Z"/><path class="cls-3" d="M149.89,80.06,152,86.75l2.13-6.69h1.66l-3,8.67h-1.66l-2.93-8.67Z"/><path class="cls-3" d="M156.89,80.06h5.58v1.36h-4v2.29h3.76v1.36h-3.76v2.28h4v1.38h-5.58Z"/><path class="cls-3" d="M165.9,87.35h3.57v1.38h-5.14V80.06h1.57Z"/><path class="cls-3" d="M174.29,80.06l1.91,6.58,1.86-6h1.07l2,6,2-6.61h1.78l-3,8.67h-1.66l-1.63-4.89L177,88.73h-1.66l-2.83-8.67Z"/><path class="cls-3" d="M186,80.06h1.57v8.67H186Z"/><path class="cls-3" d="M188.5,80.06h6.95v1.36h-2.69v7.31h-1.57V81.42H188.5Z"/><path class="cls-3" d="M198,80.06v3.62h3.78V80.06h1.57v8.67h-1.57V85.06H198v3.67h-1.58V80.06Z"/><path class="cls-3" d="M210.38,80.06h2l2.85,8.67h-1.67l-.6-1.87h-3.22l-.62,1.87h-1.67Zm-.26,5.61h2.43l-1.2-3.73Z"/><path class="cls-3" d="M218,80.06l3.82,6.14V80.06h1.57v8.67h-1.6l-3.94-6.36v6.36h-1.58V80.06Z"/><path class="cls-3" d="M227.52,80.06h2l2.84,8.67h-1.67l-.6-1.87h-3.22l-.61,1.87h-1.67Zm-.26,5.61h2.43l-1.21-3.73Z"/><g class="cls-4"><path class="cls-5" d="M106.73,40.31V71.38l-15.41-.53a4,4,0,0,0-1.26-1c-.32-1.54-.66-3.08-1-4.62a1.66,1.66,0,0,0-1-1.1c-3.52-1.83-7-3.68-10.53-5.53a3.53,3.53,0,0,0-3.94.28c-.41.33-.87.62-1.3.93l-11.44-.9a1.93,1.93,0,0,0-1.33.45c-1.42.93-2.86,1.85-4.24,2.8-.66.46-1,.49-1.63-.07-2.11-2-4.33-4-6.44-6a1.55,1.55,0,0,0-2-.33q-3.62,1.41-7.34,2.69a6.14,6.14,0,0,0-2.61,1.67c-1.13,1.19-1.86,2.6-4,3.28-.47-.05-1-.07-1.42-.16-3.67-.64-7.23-1.51-10.82-2.32A2.53,2.53,0,0,0,17.47,60c-2.15-.31-4.29-.65-6.43-1a2.69,2.69,0,0,0-1.38.09Q5.32,60.72,1,62.3c-.47.17-.69.37-.69.75,0,5,0,10,0,15V94.19c0,3.72,0,7.45,0,11.17,0,.46.23.6.9.59,1.8,0,3.61,0,5.42,0l28.17,0H67l1.68,0h38c-.21.33-.65.15-1,.15H74.23q-36.54,0-73.08,0c-.85,0-1.15-.06-1.15-.7Q0,53.07,0,.73C0,.21.08,0,1,0l104.75,0c.31,0,.75-.18,1,.15l-1.56,0H2.06c-.32,0-.65,0-1,0C.45.16.29.35.29.75c0,3.46,0,6.92.05,10.38V24.9c0,2.62,0,5.23,0,7.85,0,.9-.45,2,1.7,2.15,0,0,.06,0,.09,0l6.05,3a7.71,7.71,0,0,0,5,.81c3-.57,5.89-1.24,8.85-1.81a2.57,2.57,0,0,0,2.11-1.34A4.71,4.71,0,0,1,27.76,33a2.94,2.94,0,0,1,2.18.19c2,1,4.1,2,6.12,3.07a4,4,0,0,0,2.69.35c1.77-.34,3.57-.61,5.35-.92a4.63,4.63,0,0,1,2.53.24c2.06.76,4.17,1.47,6.24,2.22a2.21,2.21,0,0,0,1.6,0,2.52,2.52,0,0,1,1.91.09,25.24,25.24,0,0,1,2.43,1c2.47,1.26,5,2.5,7.46,3.75a1.42,1.42,0,0,0,1.56,0c2.87-1.61,5.79-3.17,8.66-4.77.63-.35.91-.25,1.26.17,1.19,1.5,2.41,3,3.62,4.47s2.63,3.26,4,4.88c.24.28.4.67,1,.72A4.6,4.6,0,0,0,89.2,47.1c.63-1.58,1.31-3.15,1.84-4.75.27-.8.86-1.18,2.07-1.23s2.31-.14,3.47-.21Z"/><path class="cls-3" d="M106.73,40.31l-10.15.6c-1.16.07-2.31.16-3.47.21s-1.8.43-2.07,1.23c-.53,1.6-1.21,3.17-1.84,4.75a4.6,4.6,0,0,1-2.83,1.39c-.62-.05-.78-.44-1-.72-1.35-1.62-2.65-3.25-4-4.88s-2.43-3-3.62-4.47c-.35-.42-.63-.52-1.26-.17-2.87,1.6-5.79,3.16-8.66,4.77a1.42,1.42,0,0,1-1.56,0c-2.48-1.25-5-2.49-7.46-3.75a25.24,25.24,0,0,0-2.43-1,2.52,2.52,0,0,0-1.91-.09,2.21,2.21,0,0,1-1.6,0c-2.07-.75-4.18-1.46-6.24-2.22a4.63,4.63,0,0,0-2.53-.24c-1.78.31-3.58.58-5.35.92a4,4,0,0,1-2.69-.35c-2-1-4.1-2-6.12-3.07A2.94,2.94,0,0,0,27.76,33a4.71,4.71,0,0,0-3.6,2.64,2.57,2.57,0,0,1-2.11,1.34c-3,.57-5.88,1.24-8.85,1.81a7.71,7.71,0,0,1-5-.81l-6.05-3s-.06,0-.09,0c-2.15-.18-1.7-1.25-1.7-2.15,0-2.62,0-5.23,0-7.85a55.41,55.41,0,0,1,11.54-.79,1.34,1.34,0,0,0,.35,0,1.57,1.57,0,0,1,1.87.65c.53.79,1.16,1.56,1.77,2.33s.9.75,1.84.27c2-1,3.86-2.06,5.86-3,2.31-1.11,4.33-2.33,5.23-4.2.37-.75,1-.44,1.61-.1,3.24,1.77,6.5,3.52,9.72,5.29a1.85,1.85,0,0,0,1.53.15c2.67-.74,5.36-1.42,8-2.18a2.39,2.39,0,0,1,2.33.27c1.85,1.32,3.78,2.59,5.66,3.89a1.52,1.52,0,0,0,1.48.21c3.45-1,6.93-1.94,10.37-3a4.11,4.11,0,0,1,2.38,0,61.37,61.37,0,0,0,12,2.45,5,5,0,0,1,2.58.89c1.06.72,2.22,1.38,3.32,2.07a1.18,1.18,0,0,0,1.26.1L98.24,27c1.92.47,3.82,1,5.76,1.39a10.09,10.09,0,0,0,2.73.52Z"/><path class="cls-6" d="M98.24,27,91,30.14a1.18,1.18,0,0,1-1.26-.1c-1.1-.69-2.26-1.35-3.32-2.07a5,5,0,0,0-2.58-.89,61.37,61.37,0,0,1-12-2.45,4.11,4.11,0,0,0-2.38,0c-3.44,1-6.92,2-10.37,3a1.52,1.52,0,0,1-1.48-.21c-1.88-1.3-3.81-2.57-5.66-3.89a2.39,2.39,0,0,0-2.33-.27c-2.64.76-5.33,1.44-8,2.18a1.85,1.85,0,0,1-1.53-.15C36.9,23.51,33.64,21.76,30.4,20c-.62-.34-1.24-.65-1.61.1-.9,1.87-2.92,3.09-5.23,4.2-2,1-3.9,2-5.86,3-.94.48-1.3.42-1.84-.27s-1.24-1.54-1.77-2.33a1.57,1.57,0,0,0-1.87-.65,1.34,1.34,0,0,1-.35,0A55.41,55.41,0,0,0,.33,24.9q0-6.88,0-13.77a22.26,22.26,0,0,1,6.42.16A3.4,3.4,0,0,0,9.12,11c1.21-.56,2.53-1,3.75-1.57,3.64-1.62,6.52-3.81,9.81-5.7,1.06-.61,1.08-.64,1.9.09,3,2.62,6,5.22,8.89,7.87a1.42,1.42,0,0,0,2,.1c1-.63,2-1.24,2.89-1.91a2.07,2.07,0,0,1,2-.24Q47,11.45,53.65,13.2c1.31.35,2.63,1,4.09.18a.86.86,0,0,1,.24,0c1.56,0,3.1-.18,4.67-.18A51.53,51.53,0,0,0,68.88,13c1.82-.21,3,.11,4,1.09a2.24,2.24,0,0,0,1.41.7c3.47.37,6.81,1.25,10.4,1.14a2.16,2.16,0,0,1,.82.09,9.87,9.87,0,0,0,5.57.11c.58-.11,1.16-.22,1.76-.28,1.73-.16,3.47-.81,5.22,0a2.11,2.11,0,0,0,.7,0l8-.37v7.45c-1.8.48-3.56,1.09-5.42,1.42C99.07,24.68,98.22,25.57,98.24,27Z"/><path class="cls-7" d="M106.73,15.42l-8,.37a2.11,2.11,0,0,1-.7,0c-1.75-.81-3.49-.16-5.22,0-.6.06-1.18.17-1.76.28A9.87,9.87,0,0,1,85.46,16a2.16,2.16,0,0,0-.82-.09c-3.59.11-6.93-.77-10.4-1.14a2.24,2.24,0,0,1-1.41-.7c-.93-1-2.13-1.3-4-1.09a51.53,51.53,0,0,1-6.23.22c-1.57,0-3.11.22-4.67.18a.86.86,0,0,0-.24,0c-1.46.85-2.78.17-4.09-.18Q47,11.46,40.38,9.67a2.07,2.07,0,0,0-2,.24c-.91.67-1.92,1.28-2.89,1.91a1.42,1.42,0,0,1-2-.1c-2.91-2.65-5.92-5.25-8.89-7.87-.82-.73-.84-.7-1.9-.09-3.29,1.89-6.17,4.08-9.81,5.7-1.22.55-2.54,1-3.75,1.57a3.4,3.4,0,0,1-2.36.26,22.26,22.26,0,0,0-6.42-.16C.33,7.67.32,4.21.29.75c0-.4.16-.59.81-.53.31,0,.64,0,1,0H105.17l1.56,0Z"/><path class="cls-2" d="M91.32,70.85l15.41.53V106h-38l-1.68,0c-.63-1.52-.87-3.13-2.57-4.37-.83-.61-1.66-1.21-2.47-1.83-1.63-1.25-1.52-1.42.76-2.12q6.77-2.07,13.45-4.23c.69-.22,1-.16,1.33.23.6.62,1.35,1.19,1.9,1.82,1.36,1.55,3.51,2,6,2a2,2,0,0,0,1.18-.31c2.56-1.71,5.38-3.23,8.19-4.76.47-.26.54-.53.38-.91-.71-1.59-1.39-3.19-2.06-4.8a1.87,1.87,0,0,0-1.08-.9c-1.48-.63-2.91-1.31-4.38-2-.47-.21-.7-.48-.69-.86,0-2.47.45-4.88,2.67-7A4.39,4.39,0,0,0,90.9,73.6C91.1,72.68,90.85,71.74,91.32,70.85Z"/><path class="cls-5" d="M98.24,27c0-1.41.83-2.3,3.07-2.69,1.86-.33,3.62-.94,5.42-1.42v6a10.09,10.09,0,0,1-2.73-.52C102.06,27.94,100.16,27.45,98.24,27Z"/><path class="cls-8" d="M91.32,70.85c-.47.89-.22,1.83-.42,2.75a4.39,4.39,0,0,1-1.25,2.28C87.43,78,87,80.41,87,82.88c0,.38.22.65.69.86,1.47.65,2.9,1.33,4.38,2a1.87,1.87,0,0,1,1.08.9c.67,1.61,1.35,3.21,2.06,4.8.16.38.09.65-.38.91-2.81,1.53-5.63,3-8.19,4.76a2,2,0,0,1-1.18.31c-2.5,0-4.65-.41-6-2-.55-.63-1.3-1.2-1.9-1.82-.37-.39-.64-.45-1.33-.23q-6.69,2.16-13.45,4.23c-2.28.7-2.39.87-.76,2.12.81.62,1.64,1.22,2.47,1.83,1.7,1.24,1.94,2.85,2.57,4.37H53.93c.14-.46.25-.93.43-1.39.7-1.78,1.42-3.57,2.13-5.35.12-.28.34-.63,0-.82s-.91,0-1.32.17-.83.33-1.25.48c-5.7,2-11.41,3.94-17.08,6-.71.25-1.75.28-2.06.94l-28.17,0c-1.81,0-3.62,0-5.42,0-.67,0-.9-.13-.9-.59,0-3.72,0-7.45,0-11.17.55,0,1.1.11,1.66.15a4.57,4.57,0,0,0,2.94-.42A5.57,5.57,0,0,0,7.27,91c.84-3,1.78-6,2.66-8.92.18-.59.54-.89,1.58-.92,2.19-.07,4.37-.25,6.55-.41a1.35,1.35,0,0,1,1.31.54c.64.79,1.27,1.59,1.94,2.37.35.41.56.92,1.23,1.14,2.83.93,5.7,1.82,8.55,2.72a.86.86,0,0,0,1-.18c1.74-1.75,3.83-3.32,5.73-5,.68-.6,1.71-1.12,1.69-2,0-1.35.25-2.69.24-4,0-.8.56-1.8-.17-2.34a8.72,8.72,0,0,0-3.41-.89c-2.09-.3-3.15-1-3.33-2.48-.29-2.46-1.31-4.87-1.52-7.35,2.11-.68,2.84-2.09,4-3.28A6.14,6.14,0,0,1,37.9,58.4q3.72-1.27,7.34-2.69a1.55,1.55,0,0,1,2,.33c2.11,2,4.33,4,6.44,6,.59.56,1,.53,1.63.07,1.38-.95,2.82-1.87,4.24-2.8a1.93,1.93,0,0,1,1.33-.45l11.44.9A5,5,0,0,1,71.41,62c-.59.9-.16,1.47.88,2.05q4.21,2.35,8.17,4.91a3.92,3.92,0,0,0,2.05.55l7.55.32A4,4,0,0,1,91.32,70.85ZM60.93,73.1a4.26,4.26,0,0,0-.57-.43c-2.38-1.29-4.78-2.56-7.16-3.85a1.46,1.46,0,0,0-1.65.1Q48.06,71,44.46,73.06c-.65.37-.68.65-.23,1.07l6.61,6.12a.85.85,0,0,0,1.25,0q4.26-3.42,8.51-6.85A2.69,2.69,0,0,0,60.93,73.1Z"/><path class="cls-2" d="M31.32,63.35c.21,2.48,1.23,4.89,1.52,7.35.18,1.49,1.24,2.18,3.33,2.48a8.72,8.72,0,0,1,3.41.89c.73.54.17,1.54.17,2.34,0,1.34-.29,2.68-.24,4,0,.83-1,1.35-1.69,2-1.9,1.66-4,3.23-5.73,5a.86.86,0,0,1-1,.18c-2.85-.9-5.72-1.79-8.55-2.72-.67-.22-.88-.73-1.23-1.14-.67-.78-1.3-1.58-1.94-2.37a1.35,1.35,0,0,0-1.31-.54c-2.18.16-4.36.34-6.55.41-1,0-1.4.33-1.58.92-.88,3-1.82,5.94-2.66,8.92a5.57,5.57,0,0,1-2.35,2.89A4.57,4.57,0,0,1,2,94.34c-.56,0-1.11-.1-1.66-.15q0-8.06,0-16.12l2.7.38a4.21,4.21,0,0,0,2.31-.19c3.19-1.32,6.4-2.62,9.6-3.93,1.19-.49,2.66-.88,1.75-2.13-.11-.15,0-.37,0-.55.19-.89.4-1.77.6-2.66.61-2.71,1.21-5.42,1.82-8.12,3.59.81,7.15,1.68,10.82,2.32C30.36,63.28,30.85,63.3,31.32,63.35Z"/><path class="cls-8" d="M19.08,60.87c-.61,2.7-1.21,5.41-1.82,8.12-.2.89-.41,1.77-.6,2.66,0,.18-.1.4,0,.55.91,1.25-.56,1.64-1.75,2.13-3.2,1.31-6.41,2.61-9.6,3.93A4.21,4.21,0,0,1,3,78.45l-2.7-.38c0-5,0-10,0-15,0-.38.22-.58.69-.75q4.37-1.57,8.7-3.2A2.69,2.69,0,0,1,11,59c2.14.34,4.28.68,6.43,1A2.53,2.53,0,0,1,19.08,60.87Z"/><path class="cls-2" d="M90.06,69.81l-7.55-.32a3.92,3.92,0,0,1-2.05-.55q-4-2.55-8.17-4.91c-1-.58-1.47-1.15-.88-2.05a5,5,0,0,0,.89-2.21c.43-.31.89-.6,1.3-.93a3.53,3.53,0,0,1,3.94-.28c3.51,1.85,7,3.7,10.53,5.53a1.66,1.66,0,0,1,1,1.1C89.4,66.73,89.74,68.27,90.06,69.81Z"/><path class="cls-2" d="M34.76,105.91c.31-.66,1.35-.69,2.06-.94,5.67-2,11.38-4,17.08-6,.42-.15.82-.34,1.25-.48s.89-.4,1.32-.17.14.54,0,.82c-.71,1.78-1.43,3.57-2.13,5.35-.18.46-.29.93-.43,1.39Z"/><path class="cls-2" d="M60.93,73.1a2.69,2.69,0,0,1-.33.34q-4.24,3.44-8.51,6.85a.85.85,0,0,1-1.25,0l-6.61-6.12c-.45-.42-.42-.7.23-1.07q3.6-2,7.09-4.14a1.46,1.46,0,0,1,1.65-.1c2.38,1.29,4.78,2.56,7.16,3.85A4.26,4.26,0,0,1,60.93,73.1Z"/><path class="cls-9" d="M94.37,67.22a25.13,25.13,0,0,0-2.63-3.75s-2-2.1-1.07-4.11h-.09s-.23-2.73-2.15-3.65c0,0-1.3-2.66-2.66-2.79,0,0,.64-2-.9-2.74a8.63,8.63,0,0,1-4-.88,13.81,13.81,0,0,0-3.68-1l-.11-.08c1-1.94.9-5-1.44-9a15.26,15.26,0,0,1-2-5.51,21.68,21.68,0,0,1,0-3.13s0-.05,0-.08.08-.36.12-.6c.1-.39.18-.61.18-.61l-.12.23c.29-2,.28-5.55-3.66-5.13h0a14,14,0,0,1,0-2.8h0l.38-.41a5,5,0,0,0,1.81-2.9.49.49,0,0,0,.22-.69V15.2A4.48,4.48,0,0,0,68.8,11c-3.29-.95-5.11,2.9-5.11,2.9h0c-2.68.12-4.78.88-4.77,1.79s2.35,1.71,5.25,1.7c-.1.67-.3,1.46-.71,1.57s.8.6.8.6l0,.07.92,2a.5.5,0,0,0,.23.26h0a.69.69,0,0,0,.28.06l.23,0,1.19.09a3.09,3.09,0,0,1,.12,2.25s-2.76-.19-2.56,2.92c0,.09,0,.17,0,.25l-.53,2.52S61.61,38,57.13,39.59c0,0-1,.84-.57,1.06l-4.32,2.82s-.93,2.66.39,3.06l.09.59a2.73,2.73,0,0,0-3,1.86s-4.63,1.63-5.46,3.84c0,0-3.6,7-10.13,3.24,0,0-2.78-1.44-2.7-2.65l0-1.36-.78,0,0-.58s-.09-.39-.38-.4l0-1.16s-.09-.2-.58-.21l0-.87s-.87-.12-.66-.7.4-.48,0-.49c0,0-.58-.3.32-1.15l.11-.58s-.86-.61-2,.43a2.08,2.08,0,0,1-1.34-.71l-2.83.12-.7.47s-4.86-.52-5.85.23c0,0-3.19,2.83-2.44,4l.77.31s-.73,1.63,1.23,1.39c0,0,.24.25.74-.42l1.17,0A4.83,4.83,0,0,0,20.86,53c1.36.14,6.88,5.52,7.44,6.22,0,0,3.86,5.34,7.25,6.11a8.73,8.73,0,0,0,7.82-.77s1.78,2.57.47,4.38c0,0-2.7,2.65-2.67,5.28,0,0-2.62,3.23-2.54,3.91,0,0-1.25,3,1.36,3.92l3.85,5.44s.1,4,1.82,5.29l-.38,3.3s.54,1.57,2.23.54a2.67,2.67,0,0,0,1.22-2.2l0-1.36s-2.23-.64-1.13-1.68l.29.1-.24-2s-5.4-6-5.52-9c0,0-.22-2.72,1.37-3.65,0,0,1.37-.35,2.4-2.56a4.6,4.6,0,0,1,.66-.94,3.15,3.15,0,0,0,2.39.4s.29,0,.72,0l2.11,6.83a4.6,4.6,0,0,0-.1,3.78s.36,1.28,1.33,1.59c0,0,.25,5.35.51,6.43a5.26,5.26,0,0,0-.69,4.15s-.31.77-1,.56c0,0-3.32.3-2.38,1.69,0,0-.11.48,1.25.61l4.48,0,0-1.16s-.47-.69,0-1c0,0,1.36-.07.54-2.13,0,0-1.75-7.81-.4-10.88,0,0,.92-1.63-.38-4.19a46,46,0,0,0-.11-7.2c.6-.26,1.27-.79.51-1.78a3.77,3.77,0,0,1,0-2.07h.21s9.47,3.16,16.18,0c0,0,.89,3.23,2.31,4.62,0,0,.72,10,0,11.08a5.81,5.81,0,0,0-.34,1.64s-3.91,8-5.28,8.22l-.4.28s-.39,0-.31.67c0,0,.07,1.07-1.29,1.13a5.74,5.74,0,0,0-2.45.33s-1.19,1,0,1.65A5.93,5.93,0,0,0,68,99l1-1.14s-1-1.38.92-1.72l.29.1,6.28-8.87s.31-.86,1-.84c0,0,2.56-.72,1.54-2.78,0,0-.9-10.61,1.19-12.21l5.34,4.61S91.38,81,91,84.43a30.86,30.86,0,0,0,1,6.43l-.51,8.44s-2.62-.56-2.29,2l.08.29,3.91-.09,1.27-.26s.51-.86-.91-2.45l-.19-.3,1.3-1.23-.2-14.67L94.59,81s-4.37-4.19-4.41-6.33c0,0-2.48-5.89-1.93-8.3a21.92,21.92,0,0,0,0-7.09l.15-2.23a8.26,8.26,0,0,1,1.08,3.71,8,8,0,0,0,1.17,3.53s1,1.19.78,3.91c0,0,1.63,4.8,2.78,5.41h.2l-1-2.45,1.52,1.59S95.12,68.31,94.37,67.22ZM66.16,40.6C66,41.47,64,42.37,64,42.37l-3.76-.74c1.48-.62,5.67-7.77,5.67-7.77.63,0,1.86,1.76,1.73,3.62A6.85,6.85,0,0,1,66.16,40.6Z"/></g></g></g></svg>