<svg xmlns="http://www.w3.org/2000/svg" width="17.063" height="19.5" viewBox="0 0 17.063 19.5">
  <path id="Icon_awesome-shopping-bag" data-name="Icon awesome-shopping-bag" d="M13.406,6.094V4.875a4.875,4.875,0,0,0-9.75,0V6.094H0V16.453A3.047,3.047,0,0,0,3.047,19.5H14.016a3.047,3.047,0,0,0,3.047-3.047V6.094ZM6.094,4.875a2.438,2.438,0,0,1,4.875,0V6.094H6.094Zm6.094,4.57a.914.914,0,1,1,.914-.914A.914.914,0,0,1,12.188,9.445Zm-7.312,0a.914.914,0,1,1,.914-.914A.914.914,0,0,1,4.875,9.445Z" fill="#e47625"/>
</svg>
