<svg xmlns="http://www.w3.org/2000/svg" xmlns:xlink="http://www.w3.org/1999/xlink" width="250" height="250" viewBox="0 0 250 250">
  <defs>
    <clipPath id="clip-_250x250">
      <rect width="250" height="250"/>
    </clipPath>
  </defs>
  <g id="_250x250" data-name="250x250" clip-path="url(#clip-_250x250)">
    <rect width="250" height="250" fill="#fff"/>
    <g id="Rectángulo_1468" data-name="Rectángulo 1468" transform="translate(-27 -11)" fill="#707070" stroke="#707070" stroke-width="1">
      <rect width="304" height="272" stroke="none"/>
      <rect x="0.5" y="0.5" width="303" height="271" fill="none"/>
    </g>
    <g id="Layer_2" data-name="Layer 2" transform="translate(51.71 51.65)" opacity="0.19">
      <g id="Layer_1" data-name="Layer 1" transform="translate(0.29 0.35)">
        <path id="Trazado_134" data-name="Trazado 134" d="M128.968,117.085c.543-4.826-7.736-11.823-7.736-11.823l-7.54-6.545c-3.016,2.262-1.7,17.372-1.7,17.372,1.508,3.016-2.187,3.951-2.187,3.951-.965,0-1.418,1.206-1.418,1.206l-9,12.622-.407-.136c-2.79.483-1.312,2.443-1.312,2.443L96.154,137.8a8.43,8.43,0,0,1-5.67-.422c-1.644-.875,0-2.353,0-2.353a8.234,8.234,0,0,1,3.484-.467c1.93,0,1.84-1.6,1.84-1.6-.121-.98.437-.965.437-.965l.573-.392c1.945-.377,7.54-11.7,7.54-11.7a8.052,8.052,0,0,1,.483-2.337c1.01-1.508,0-15.759,0-15.759-2.021-1.991-3.287-6.59-3.287-6.59-9.561,4.524-23.027,0-23.027,0a2.008,2.008,0,0,0-.3,0,5.414,5.414,0,0,0,0,3.016c1.086,1.4.121,2.156-.724,2.533a64.845,64.845,0,0,1,.151,10.239c1.84,3.649.543,6.032.543,6.032-1.915,4.388.558,15.5.558,15.5,1.176,2.941-.769,3.016-.769,3.016-.709.392,0,1.372,0,1.372v1.659H71.6c-1.945-.181-1.779-.875-1.779-.875-1.342-1.96,3.393-2.4,3.393-2.4.965.3,1.4-.784,1.4-.784a7.54,7.54,0,0,1,.98-5.926c-.377-1.508-.724-9.139-.724-9.139a3.529,3.529,0,0,1-1.885-2.262,6.545,6.545,0,0,1,.136-5.384L70.111,102.1H69.085a4.524,4.524,0,0,1-3.393-.573,6.394,6.394,0,0,0-.95,1.342C63.234,106,61.319,106.5,61.319,106.5c-2.247,1.327-1.945,5.2-1.945,5.2.166,4.3,7.857,12.788,7.857,12.788l.483,2.624-.407-.151c-1.508,1.508,1.6,2.4,1.6,2.4v1.93a3.83,3.83,0,0,1-1.749,3.137c-2.4,1.508-3.167-.769-3.167-.769l.528-4.69c-2.443-1.87-2.579-7.54-2.579-7.54l-5.489-7.736c-3.71-1.342-1.93-5.58-1.93-5.58-.106-.98,3.619-5.58,3.619-5.58,0-3.74,3.8-7.54,3.8-7.54,1.87-2.579-.679-6.228-.679-6.228A12.4,12.4,0,0,1,50.13,89.85c-4.916-1.056-10.405-8.6-10.405-8.6-.8-.98-8.656-8.656-10.556-8.837a6.922,6.922,0,0,1-3.559-1.749l-1.629-.121c-.709.95-1.056.588-1.056.588-2.775.347-1.749-1.975-1.749-1.975l-1.1-.437c-1.056-1.689,3.483-5.715,3.483-5.715,1.418-1.071,8.339-.347,8.339-.347l.98-.664,4.026-.181a3.016,3.016,0,0,0,1.915,1.025c1.508-1.508,2.79-.618,2.79-.618l-.151.829c-1.282,1.206-.467,1.644-.467,1.644.558,0,.287-.136,0,.694s.95.98.95.98v1.252c.694,0,.814.3.814.3v1.659c.422,0,.543.558.543.558v.829h1.1V72.9c-.347,1.764,3.71,3.83,3.71,3.83,9.289,5.353,14.4-4.615,14.4-4.615,1.191-3.137,7.781-5.459,7.781-5.459a3.86,3.86,0,0,1,4.268-2.639l-.2-.86c-1.9-.588-.618-4.373-.618-4.373l6.138-4.011c-.648-.317.814-1.508.814-1.508,6.379-2.232,10.1-13.738,10.1-13.738l.754-3.589a3.018,3.018,0,0,1,0-.362c-.287-4.434,3.6-4.087,3.634-4.087a4.3,4.3,0,0,0-.166-3.2l-1.674-.2h-.317a.769.769,0,0,1-.407-.106h0a.724.724,0,0,1-.317-.362S91.042,24.9,91,24.825v-.106s-1.855-.664-1.146-.86.875-1.267,1.01-2.232c-4.132,0-7.465-1.056-7.54-2.428s3.016-2.368,6.786-2.549h0s2.594-5.489,7.269-4.132a6.379,6.379,0,0,1,5.549,6.032v3.423a.694.694,0,0,1-.3.98,7.193,7.193,0,0,1-2.594,4.132l-.528.573h0a21.4,21.4,0,0,0,0,4h0c5.61-.6,5.625,4.524,5.2,7.3l.181-.317a7.026,7.026,0,0,0-.256.86,3.181,3.181,0,0,1-.181.86c-.06.226,0,.075,0,.106a31.445,31.445,0,0,0,0,4.524,21.353,21.353,0,0,0,2.775,7.827c3.333,5.776,3.408,10.073,2.051,12.848l.151.106a20.012,20.012,0,0,1,5.248,1.387,12.26,12.26,0,0,0,5.655,1.252c2.187,1.025,1.282,3.906,1.282,3.906,1.93.181,3.785,3.966,3.785,3.966,2.729,1.312,3.016,5.188,3.016,5.188h.151c-1.327,2.865,1.508,5.836,1.508,5.836a35.983,35.983,0,0,1,3.74,5.353c1.071,1.508.769,7.9.769,7.9l-2.156-2.277,1.508,3.5h-.271c-1.764-.92-4.117-7.766-4.117-7.766a7.54,7.54,0,0,0-1.1-5.565,11.34,11.34,0,0,1-1.674-5.022,11.959,11.959,0,0,0-1.508-5.293l-.241,3.122a31.245,31.245,0,0,1,0,10.089c-.784,3.438,2.745,11.823,2.745,11.823,0,3.016,6.288,9.048,6.288,9.048v.573a72.761,72.761,0,1,0-4.871,6.635C129.028,118.08,128.968,117.085,128.968,117.085Z" transform="translate(-0.29 -0.35)" fill="#e6e6e6"/>
        <path id="Trazado_135" data-name="Trazado 135" d="M64.723,30S58.691,40.194,56.64,41.069l5.368,1.056s2.8-1.282,3.016-2.518a9.727,9.727,0,0,0,2.126-4.434C67.3,32.549,65.567,30,64.723,30Z" transform="translate(28.336 14.713)" fill="#e6e6e6"/>
      </g>
    </g>
  </g>
</svg>
