<svg xmlns="http://www.w3.org/2000/svg" xmlns:xlink="http://www.w3.org/1999/xlink" width="500" height="375" viewBox="0 0 500 375">
  <defs>
    <clipPath id="clip-_500x375">
      <rect width="500" height="375"/>
    </clipPath>
  </defs>
  <g id="_500x375" data-name="500x375" clip-path="url(#clip-_500x375)">
    <rect width="500" height="375" fill="#fff"/>
    <g id="Rectángulo_1469" data-name="Rectángulo 1469" fill="#707070" stroke="#707070" stroke-width="1">
      <rect width="500" height="375" stroke="none"/>
      <rect x="0.5" y="0.5" width="499" height="374" fill="none"/>
    </g>
    <g id="Layer_2" data-name="Layer 2" transform="translate(142.71 80.65)" opacity="0.19">
      <g id="Layer_1" data-name="Layer 1" transform="translate(0.29 0.35)">
        <path id="Trazado_134" data-name="Trazado 134" d="M189.156,171.686c.8-7.083-11.354-17.353-11.354-17.353l-11.067-9.606c-4.427,3.32-2.5,25.5-2.5,25.5,2.213,4.427-3.209,5.8-3.209,5.8-1.417,0-2.081,1.771-2.081,1.771L145.73,196.32l-.6-.2c-4.095.708-1.926,3.586-1.926,3.586l-2.213,2.39a12.373,12.373,0,0,1-8.322-.62c-2.413-1.284,0-3.453,0-3.453a12.085,12.085,0,0,1,5.113-.686c2.833,0,2.7-2.346,2.7-2.346-.177-1.439.642-1.417.642-1.417l.841-.575c2.855-.553,11.067-17.176,11.067-17.176a11.819,11.819,0,0,1,.708-3.431c1.483-2.213,0-23.13,0-23.13-2.966-2.922-4.825-9.672-4.825-9.672-14.033,6.64-33.8,0-33.8,0a2.944,2.944,0,0,0-.443,0,7.946,7.946,0,0,0,0,4.427c1.594,2.058.177,3.165-1.062,3.718a95.176,95.176,0,0,1,.221,15.029c2.7,5.356.8,8.853.8,8.853-2.811,6.441.819,22.753.819,22.753,1.726,4.316-1.129,4.427-1.129,4.427-1.04.575,0,2.014,0,2.014v2.435H104.96c-2.855-.266-2.612-1.284-2.612-1.284-1.97-2.877,4.98-3.519,4.98-3.519,1.417.443,2.058-1.151,2.058-1.151a11.067,11.067,0,0,1,1.439-8.7c-.553-2.213-1.062-13.413-1.062-13.413a5.179,5.179,0,0,1-2.767-3.32,9.606,9.606,0,0,1,.2-7.9l-4.427-14.276h-1.505a6.64,6.64,0,0,1-4.98-.841,9.385,9.385,0,0,0-1.394,1.97c-2.213,4.6-5.024,5.334-5.024,5.334-3.3,1.948-2.855,7.636-2.855,7.636.243,6.308,11.532,18.769,11.532,18.769l.708,3.851-.6-.221C96.438,188.4,101,189.7,101,189.7v2.833a5.622,5.622,0,0,1-2.567,4.6c-3.519,2.213-4.648-1.129-4.648-1.129l.775-6.884c-3.586-2.745-3.785-11.067-3.785-11.067l-8.057-11.354c-5.445-1.97-2.833-8.189-2.833-8.189-.155-1.439,5.312-8.189,5.312-8.189,0-5.489,5.578-11.067,5.578-11.067,2.745-3.785-1-9.141-1-9.141a18.194,18.194,0,0,1-16.335,1.594C66.226,130.163,58.169,119.1,58.169,119.1c-1.173-1.439-12.7-12.7-15.493-12.97a10.159,10.159,0,0,1-5.224-2.567l-2.39-.177c-1.04,1.394-1.549.863-1.549.863-4.073.509-2.567-2.9-2.567-2.9l-1.616-.642c-1.549-2.479,5.113-8.389,5.113-8.389,2.081-1.571,12.24-.509,12.24-.509l1.439-.974,5.91-.266a4.427,4.427,0,0,0,2.811,1.505c2.213-2.213,4.095-.907,4.095-.907l-.221,1.217c-1.881,1.771-.686,2.413-.686,2.413.819,0,.421-.2,0,1.018s1.394,1.439,1.394,1.439v1.837c1.018,0,1.2.443,1.2.443v2.435c.62,0,.8.819.8.819V104h1.616v2.833c-.509,2.59,5.445,5.622,5.445,5.622,13.634,7.857,21.138-6.773,21.138-6.773,1.749-4.6,11.421-8.012,11.421-8.012A5.666,5.666,0,0,1,109.3,93.8l-.288-1.262c-2.789-.863-.907-6.419-.907-6.419l9.008-5.888c-.952-.465,1.2-2.213,1.2-2.213,9.362-3.276,14.829-20.164,14.829-20.164l1.107-5.268a4.426,4.426,0,0,1,0-.531c-.421-6.507,5.29-6,5.334-6a6.308,6.308,0,0,0-.243-4.692l-2.457-.288h-.465a1.129,1.129,0,0,1-.6-.155h0a1.062,1.062,0,0,1-.465-.531s-1.859-4.006-1.926-4.117v-.155s-2.722-.974-1.682-1.262,1.284-1.859,1.483-3.276c-6.065,0-10.956-1.549-11.067-3.563s4.427-3.475,9.96-3.741h0s3.807-8.057,10.668-6.065a9.362,9.362,0,0,1,8.145,8.853V32.09a1.018,1.018,0,0,1-.443,1.439,10.558,10.558,0,0,1-3.807,6.065l-.775.841h0a31.407,31.407,0,0,0,0,5.865h0c8.234-.885,8.256,6.64,7.636,10.713l.266-.465a10.31,10.31,0,0,0-.376,1.262,4.668,4.668,0,0,1-.266,1.262c-.089.332,0,.111,0,.155a46.153,46.153,0,0,0,0,6.64,31.341,31.341,0,0,0,4.073,11.487c4.892,8.477,5,14.785,3.01,18.858l.221.155a29.372,29.372,0,0,1,7.7,2.036,17.994,17.994,0,0,0,8.3,1.837c3.209,1.505,1.881,5.733,1.881,5.733,2.833.266,5.556,5.821,5.556,5.821,4.006,1.926,4.427,7.614,4.427,7.614h.221c-1.948,4.205,2.213,8.566,2.213,8.566a52.813,52.813,0,0,1,5.489,7.857c1.571,2.213,1.129,11.6,1.129,11.6l-3.165-3.342,2.213,5.135h-.4c-2.59-1.35-6.042-11.4-6.042-11.4a11.067,11.067,0,0,0-1.616-8.167,16.644,16.644,0,0,1-2.457-7.37,17.552,17.552,0,0,0-2.213-7.769l-.354,4.582a45.859,45.859,0,0,1,0,14.807c-1.151,5.046,4.028,17.353,4.028,17.353,0,4.427,9.23,13.28,9.23,13.28v.841a106.794,106.794,0,1,0-7.149,9.739C189.244,173.147,189.156,171.686,189.156,171.686Z" transform="translate(-0.29 -0.35)" fill="#e6e6e6"/>
        <path id="Trazado_135" data-name="Trazado 135" d="M68.5,30S59.65,44.962,56.64,46.246L64.52,47.8s4.117-1.881,4.427-3.7a14.276,14.276,0,0,0,3.121-6.507C72.288,33.741,69.743,30,68.5,30Z" transform="translate(68.083 35.626)" fill="#e6e6e6"/>
      </g>
    </g>
  </g>
</svg>
